<svg width="1440" height="136" viewBox="0 0 1440 136" fill="none" xmlns="http://www.w3.org/2000/svg">
<g clip-path="url(#clip0_1_253)">
<rect width="1440" height="136" rx="4" fill="white"/>
<g filter="url(#filter0_ddd_1_253)">
<g clip-path="url(#clip1_1_253)">
<rect x="3" y="5" width="1434" height="46" rx="4" fill="#292253"/>
<rect x="3" y="5" width="1998" height="5" fill="#FBBF52"/>
<rect x="23" y="15" width="32" height="32" rx="4" fill="white"/>
<rect x="640" y="15" width="159" height="32" rx="4" fill="white"/>
<circle cx="1409" cy="31" r="16" fill="white"/>
<circle cx="822" cy="31" r="16" fill="white"/>
</g>
<rect x="1.5" y="3.5" width="1437" height="49" rx="5.5" stroke="#9747FF" stroke-width="3"/>
</g>
<rect x="6" y="81" width="113" height="36" rx="4" fill="#E8E9F0"/>
<path d="M32.8835 104V95.2727H34.7287V98.8736H38.4744V95.2727H40.3153V104H38.4744V100.395H34.7287V104H32.8835ZM44.7599 104.128C44.098 104.128 43.5256 103.987 43.0426 103.706C42.5625 103.422 42.1918 103.027 41.9304 102.521C41.669 102.013 41.5384 101.423 41.5384 100.753C41.5384 100.077 41.669 99.4858 41.9304 98.9801C42.1918 98.4716 42.5625 98.0767 43.0426 97.7955C43.5256 97.5114 44.098 97.3693 44.7599 97.3693C45.4219 97.3693 45.9929 97.5114 46.473 97.7955C46.956 98.0767 47.3281 98.4716 47.5895 98.9801C47.8509 99.4858 47.9815 100.077 47.9815 100.753C47.9815 101.423 47.8509 102.013 47.5895 102.521C47.3281 103.027 46.956 103.422 46.473 103.706C45.9929 103.987 45.4219 104.128 44.7599 104.128ZM44.7685 102.722C45.0696 102.722 45.321 102.636 45.5227 102.466C45.7244 102.293 45.8764 102.057 45.9787 101.759C46.0838 101.46 46.1364 101.121 46.1364 100.74C46.1364 100.359 46.0838 100.02 45.9787 99.7216C45.8764 99.4233 45.7244 99.1875 45.5227 99.0142C45.321 98.8409 45.0696 98.7543 44.7685 98.7543C44.4645 98.7543 44.2088 98.8409 44.0014 99.0142C43.7969 99.1875 43.642 99.4233 43.5369 99.7216C43.4347 100.02 43.3835 100.359 43.3835 100.74C43.3835 101.121 43.4347 101.46 43.5369 101.759C43.642 102.057 43.7969 102.293 44.0014 102.466C44.2088 102.636 44.4645 102.722 44.7685 102.722ZM49.1619 104V97.4545H50.892V98.6094H50.9688C51.1051 98.2259 51.3324 97.9233 51.6506 97.7017C51.9688 97.4801 52.3494 97.3693 52.7926 97.3693C53.2415 97.3693 53.6236 97.4815 53.9389 97.706C54.2543 97.9276 54.4645 98.2287 54.5696 98.6094H54.6378C54.7713 98.2344 55.0128 97.9347 55.3622 97.7102C55.7145 97.483 56.1307 97.3693 56.6108 97.3693C57.2216 97.3693 57.7173 97.5639 58.098 97.9531C58.4815 98.3395 58.6733 98.8878 58.6733 99.598V104H56.8622V99.956C56.8622 99.5923 56.7656 99.3196 56.5724 99.1378C56.3793 98.956 56.1378 98.8651 55.848 98.8651C55.5185 98.8651 55.2614 98.9702 55.0767 99.1804C54.892 99.3878 54.7997 99.6619 54.7997 100.003V104H53.0398V99.9176C53.0398 99.5966 52.9474 99.3409 52.7628 99.1506C52.581 98.9602 52.3409 98.8651 52.0426 98.8651C51.8409 98.8651 51.6591 98.9162 51.4972 99.0185C51.3381 99.1179 51.2116 99.2585 51.1179 99.4403C51.0241 99.6193 50.9773 99.8295 50.9773 100.071V104H49.1619ZM63.0902 104.128C62.4169 104.128 61.8374 103.991 61.3516 103.719C60.8686 103.443 60.4964 103.054 60.2351 102.551C59.9737 102.045 59.843 101.447 59.843 100.757C59.843 100.084 59.9737 99.4929 60.2351 98.9844C60.4964 98.4759 60.8643 98.0795 61.3388 97.7955C61.8161 97.5114 62.3757 97.3693 63.0178 97.3693C63.4496 97.3693 63.8516 97.4389 64.2237 97.5781C64.5987 97.7145 64.9254 97.9205 65.2038 98.196C65.4851 98.4716 65.7038 98.8182 65.8601 99.2358C66.0163 99.6506 66.0945 100.136 66.0945 100.693V101.192H60.5675V100.067H64.3857C64.3857 99.8054 64.3288 99.5739 64.2152 99.3722C64.1016 99.1705 63.9439 99.0128 63.7422 98.8991C63.5433 98.7827 63.3118 98.7244 63.0476 98.7244C62.772 98.7244 62.5277 98.7884 62.3146 98.9162C62.1044 99.0412 61.9396 99.2102 61.8203 99.4233C61.701 99.6335 61.6399 99.8679 61.6371 100.126V101.196C61.6371 101.52 61.6967 101.8 61.8161 102.036C61.9382 102.271 62.1101 102.453 62.3317 102.581C62.5533 102.709 62.8161 102.773 63.12 102.773C63.3217 102.773 63.5064 102.744 63.674 102.688C63.8416 102.631 63.9851 102.545 64.1044 102.432C64.2237 102.318 64.3146 102.179 64.3771 102.014L66.0561 102.125C65.9709 102.528 65.7962 102.881 65.532 103.182C65.2706 103.48 64.9325 103.713 64.5178 103.881C64.1058 104.045 63.63 104.128 63.0902 104.128ZM67.2791 106.455V97.4545H69.0689V98.554H69.1499C69.2294 98.3778 69.3445 98.1989 69.495 98.017C69.6484 97.8324 69.8473 97.679 70.0916 97.5568C70.3388 97.4318 70.6456 97.3693 71.0121 97.3693C71.4893 97.3693 71.9297 97.4943 72.3331 97.7443C72.7365 97.9915 73.0589 98.3651 73.3004 98.8651C73.5419 99.3622 73.6626 99.9858 73.6626 100.736C73.6626 101.466 73.5447 102.082 73.3089 102.585C73.076 103.085 72.7578 103.464 72.3544 103.723C71.9538 103.979 71.505 104.107 71.0078 104.107C70.6555 104.107 70.3558 104.048 70.1087 103.932C69.8643 103.815 69.6641 103.669 69.5078 103.493C69.3516 103.314 69.2322 103.134 69.1499 102.952H69.0945V106.455H67.2791ZM69.0561 100.727C69.0561 101.116 69.1101 101.456 69.218 101.746C69.326 102.036 69.4822 102.261 69.6868 102.423C69.8913 102.582 70.1399 102.662 70.4325 102.662C70.728 102.662 70.978 102.581 71.1825 102.419C71.3871 102.254 71.5419 102.027 71.647 101.737C71.755 101.445 71.8089 101.108 71.8089 100.727C71.8089 100.349 71.7564 100.017 71.6513 99.7301C71.5462 99.4432 71.3913 99.2187 71.1868 99.0568C70.9822 98.8949 70.7308 98.8139 70.4325 98.8139C70.1371 98.8139 69.8871 98.892 69.6825 99.0483C69.4808 99.2045 69.326 99.4261 69.218 99.7131C69.1101 100 69.0561 100.338 69.0561 100.727ZM76.7393 104.124C76.3217 104.124 75.9496 104.051 75.6229 103.906C75.2962 103.759 75.0376 103.541 74.8473 103.254C74.6598 102.964 74.5661 102.604 74.5661 102.172C74.5661 101.808 74.6328 101.503 74.7663 101.256C74.8999 101.009 75.0817 100.81 75.3118 100.659C75.5419 100.509 75.8033 100.395 76.0959 100.318C76.3913 100.241 76.701 100.188 77.0249 100.156C77.4055 100.116 77.7124 100.08 77.9453 100.045C78.1783 100.009 78.3473 99.9545 78.4524 99.8835C78.5575 99.8125 78.6101 99.7074 78.6101 99.5682V99.5426C78.6101 99.2727 78.5249 99.0639 78.3544 98.9162C78.1868 98.7685 77.9482 98.6946 77.6385 98.6946C77.3118 98.6946 77.0518 98.767 76.8587 98.9119C76.6655 99.054 76.5376 99.233 76.4751 99.4489L74.7962 99.3125C74.8814 98.9148 75.049 98.571 75.299 98.2812C75.549 97.9886 75.8714 97.7642 76.2663 97.608C76.6641 97.4489 77.1243 97.3693 77.647 97.3693C78.0107 97.3693 78.3587 97.4119 78.6911 97.4972C79.0263 97.5824 79.3232 97.7145 79.5817 97.8935C79.843 98.0724 80.049 98.3026 80.1996 98.5838C80.3501 98.8622 80.4254 99.196 80.4254 99.5852V104H78.7038V103.092H78.6527C78.5476 103.297 78.407 103.477 78.2308 103.634C78.0547 103.787 77.843 103.908 77.5959 103.996C77.3487 104.081 77.0632 104.124 76.7393 104.124ZM77.2592 102.871C77.5263 102.871 77.7621 102.818 77.9666 102.713C78.1712 102.605 78.3317 102.46 78.4482 102.278C78.5646 102.097 78.6229 101.891 78.6229 101.661V100.966C78.5661 101.003 78.4879 101.037 78.3885 101.068C78.2919 101.097 78.1825 101.124 78.0604 101.149C77.9382 101.172 77.8161 101.193 77.6939 101.213C77.5717 101.23 77.4609 101.246 77.3615 101.26C77.1484 101.291 76.9624 101.341 76.8033 101.409C76.6442 101.477 76.5206 101.57 76.4325 101.686C76.3445 101.8 76.3004 101.942 76.3004 102.112C76.3004 102.359 76.3899 102.548 76.5689 102.679C76.7507 102.807 76.9808 102.871 77.2592 102.871ZM84.7827 106.591C84.1946 106.591 83.6903 106.51 83.2699 106.348C82.8523 106.189 82.5199 105.972 82.2727 105.696C82.0256 105.42 81.8651 105.111 81.7912 104.767L83.4702 104.541C83.5213 104.672 83.6023 104.794 83.7131 104.908C83.8239 105.021 83.9702 105.112 84.152 105.18C84.3366 105.251 84.5611 105.287 84.8253 105.287C85.2202 105.287 85.5455 105.19 85.8011 104.997C86.0597 104.807 86.1889 104.487 86.1889 104.038V102.841H86.1122C86.0327 103.023 85.9134 103.195 85.7543 103.357C85.5952 103.518 85.3906 103.651 85.1406 103.753C84.8906 103.855 84.5923 103.906 84.2457 103.906C83.7543 103.906 83.3068 103.793 82.9034 103.565C82.5028 103.335 82.1832 102.984 81.9446 102.513C81.7088 102.038 81.5909 101.439 81.5909 100.714C81.5909 99.973 81.7116 99.3537 81.9531 98.8565C82.1946 98.3594 82.5156 97.9872 82.9162 97.7401C83.3196 97.4929 83.7614 97.3693 84.2415 97.3693C84.608 97.3693 84.9148 97.4318 85.1619 97.5568C85.4091 97.679 85.608 97.8324 85.7585 98.017C85.9119 98.1989 86.0298 98.3778 86.1122 98.554H86.1804V97.4545H87.983V104.064C87.983 104.621 87.8466 105.087 87.5739 105.462C87.3011 105.837 86.9233 106.118 86.4403 106.305C85.9602 106.496 85.4077 106.591 84.7827 106.591ZM84.821 102.543C85.1136 102.543 85.3608 102.47 85.5625 102.325C85.767 102.178 85.9233 101.967 86.0312 101.695C86.142 101.419 86.1974 101.089 86.1974 100.706C86.1974 100.322 86.1435 99.9901 86.0355 99.7088C85.9276 99.4247 85.7713 99.2045 85.5668 99.0483C85.3622 98.892 85.1136 98.8139 84.821 98.8139C84.5227 98.8139 84.2713 98.8949 84.0668 99.0568C83.8622 99.2159 83.7074 99.4375 83.6023 99.7216C83.4972 100.006 83.4446 100.334 83.4446 100.706C83.4446 101.084 83.4972 101.411 83.6023 101.686C83.7102 101.959 83.8651 102.17 84.0668 102.321C84.2713 102.469 84.5227 102.543 84.821 102.543ZM92.4105 104.128C91.7372 104.128 91.1577 103.991 90.6719 103.719C90.1889 103.443 89.8168 103.054 89.5554 102.551C89.294 102.045 89.1634 101.447 89.1634 100.757C89.1634 100.084 89.294 99.4929 89.5554 98.9844C89.8168 98.4759 90.1847 98.0795 90.6591 97.7955C91.1364 97.5114 91.696 97.3693 92.3381 97.3693C92.7699 97.3693 93.1719 97.4389 93.544 97.5781C93.919 97.7145 94.2457 97.9205 94.5241 98.196C94.8054 98.4716 95.0241 98.8182 95.1804 99.2358C95.3366 99.6506 95.4148 100.136 95.4148 100.693V101.192H89.8878V100.067H93.706C93.706 99.8054 93.6491 99.5739 93.5355 99.3722C93.4219 99.1705 93.2642 99.0128 93.0625 98.8991C92.8636 98.7827 92.6321 98.7244 92.3679 98.7244C92.0923 98.7244 91.848 98.7884 91.6349 98.9162C91.4247 99.0412 91.2599 99.2102 91.1406 99.4233C91.0213 99.6335 90.9602 99.8679 90.9574 100.126V101.196C90.9574 101.52 91.017 101.8 91.1364 102.036C91.2585 102.271 91.4304 102.453 91.652 102.581C91.8736 102.709 92.1364 102.773 92.4403 102.773C92.642 102.773 92.8267 102.744 92.9943 102.688C93.1619 102.631 93.3054 102.545 93.4247 102.432C93.544 102.318 93.6349 102.179 93.6974 102.014L95.3764 102.125C95.2912 102.528 95.1165 102.881 94.8523 103.182C94.5909 103.48 94.2528 103.713 93.8381 103.881C93.4261 104.045 92.9503 104.128 92.4105 104.128Z" fill="#292253"/>
<rect x="1377" y="81" width="57" height="36" rx="4" fill="#E8E9F0"/>
<path d="M1392.76 104V95.2727H1394.6V98.8736H1398.35V95.2727H1400.19V104H1398.35V100.395H1394.6V104H1392.76ZM1404.66 104.128C1403.99 104.128 1403.41 103.991 1402.92 103.719C1402.44 103.443 1402.07 103.054 1401.81 102.551C1401.54 102.045 1401.41 101.447 1401.41 100.757C1401.41 100.084 1401.54 99.4929 1401.81 98.9844C1402.07 98.4759 1402.43 98.0795 1402.91 97.7955C1403.39 97.5114 1403.95 97.3693 1404.59 97.3693C1405.02 97.3693 1405.42 97.4389 1405.79 97.5781C1406.17 97.7145 1406.5 97.9205 1406.77 98.196C1407.06 98.4716 1407.27 98.8182 1407.43 99.2358C1407.59 99.6506 1407.66 100.136 1407.66 100.693V101.192H1402.14V100.067H1405.96C1405.96 99.8054 1405.9 99.5739 1405.79 99.3722C1405.67 99.1705 1405.51 99.0128 1405.31 98.8991C1405.11 98.7827 1404.88 98.7244 1404.62 98.7244C1404.34 98.7244 1404.1 98.7884 1403.88 98.9162C1403.67 99.0412 1403.51 99.2102 1403.39 99.4233C1403.27 99.6335 1403.21 99.8679 1403.21 100.126V101.196C1403.21 101.52 1403.27 101.8 1403.39 102.036C1403.51 102.271 1403.68 102.453 1403.9 102.581C1404.12 102.709 1404.39 102.773 1404.69 102.773C1404.89 102.773 1405.08 102.744 1405.24 102.688C1405.41 102.631 1405.56 102.545 1405.67 102.432C1405.79 102.318 1405.88 102.179 1405.95 102.014L1407.63 102.125C1407.54 102.528 1407.37 102.881 1407.1 103.182C1406.84 103.48 1406.5 103.713 1406.09 103.881C1405.68 104.045 1405.2 104.128 1404.66 104.128ZM1410.66 95.2727V104H1408.85V95.2727H1410.66ZM1412.12 106.455V97.4545H1413.91V98.554H1413.99C1414.07 98.3778 1414.18 98.1989 1414.33 98.017C1414.49 97.8324 1414.69 97.679 1414.93 97.5568C1415.18 97.4318 1415.49 97.3693 1415.85 97.3693C1416.33 97.3693 1416.77 97.4943 1417.17 97.7443C1417.58 97.9915 1417.9 98.3651 1418.14 98.8651C1418.38 99.3622 1418.5 99.9858 1418.5 100.736C1418.5 101.466 1418.38 102.082 1418.15 102.585C1417.92 103.085 1417.6 103.464 1417.19 103.723C1416.79 103.979 1416.34 104.107 1415.85 104.107C1415.5 104.107 1415.2 104.048 1414.95 103.932C1414.7 103.815 1414.5 103.669 1414.35 103.493C1414.19 103.314 1414.07 103.134 1413.99 102.952H1413.93V106.455H1412.12ZM1413.9 100.727C1413.9 101.116 1413.95 101.456 1414.06 101.746C1414.17 102.036 1414.32 102.261 1414.53 102.423C1414.73 102.582 1414.98 102.662 1415.27 102.662C1415.57 102.662 1415.82 102.581 1416.02 102.419C1416.23 102.254 1416.38 102.027 1416.49 101.737C1416.59 101.445 1416.65 101.108 1416.65 100.727C1416.65 100.349 1416.6 100.017 1416.49 99.7301C1416.39 99.4432 1416.23 99.2187 1416.03 99.0568C1415.82 98.8949 1415.57 98.8139 1415.27 98.8139C1414.98 98.8139 1414.73 98.892 1414.52 99.0483C1414.32 99.2045 1414.17 99.4261 1414.06 99.7131C1413.95 100 1413.9 100.338 1413.9 100.727Z" fill="#292253"/>
<rect x="635" y="81" width="200" height="36" rx="4" fill="#E8E9F0"/>
<path d="M686.759 104V95.2727H690.202C690.864 95.2727 691.428 95.3991 691.893 95.652C692.359 95.902 692.714 96.25 692.959 96.696C693.206 97.1392 693.33 97.6506 693.33 98.2301C693.33 98.8097 693.205 99.321 692.955 99.7642C692.705 100.207 692.342 100.553 691.868 100.8C691.396 101.047 690.825 101.17 690.155 101.17H687.96V99.6918H689.857C690.212 99.6918 690.504 99.6307 690.734 99.5085C690.967 99.3835 691.141 99.2116 691.254 98.9929C691.371 98.7713 691.429 98.517 691.429 98.2301C691.429 97.9403 691.371 97.6875 691.254 97.4716C691.141 97.2528 690.967 97.0838 690.734 96.9645C690.501 96.8423 690.206 96.7812 689.848 96.7812H688.604V104H686.759ZM694.494 104V97.4545H696.254V98.5966H696.322C696.441 98.1903 696.642 97.8835 696.923 97.6761C697.204 97.4659 697.528 97.3608 697.895 97.3608C697.985 97.3608 698.083 97.3665 698.189 97.3778C698.294 97.3892 698.386 97.4048 698.466 97.4247V99.0355C698.38 99.0099 698.262 98.9872 698.112 98.9673C697.961 98.9474 697.824 98.9375 697.699 98.9375C697.431 98.9375 697.193 98.9957 696.983 99.1122C696.775 99.2259 696.61 99.3849 696.488 99.5895C696.369 99.794 696.309 100.03 696.309 100.297V104H694.494ZM702.057 104.128C701.395 104.128 700.822 103.987 700.339 103.706C699.859 103.422 699.489 103.027 699.227 102.521C698.966 102.013 698.835 101.423 698.835 100.753C698.835 100.077 698.966 99.4858 699.227 98.9801C699.489 98.4716 699.859 98.0767 700.339 97.7955C700.822 97.5114 701.395 97.3693 702.057 97.3693C702.719 97.3693 703.29 97.5114 703.77 97.7955C704.253 98.0767 704.625 98.4716 704.886 98.9801C705.148 99.4858 705.278 100.077 705.278 100.753C705.278 101.423 705.148 102.013 704.886 102.521C704.625 103.027 704.253 103.422 703.77 103.706C703.29 103.987 702.719 104.128 702.057 104.128ZM702.065 102.722C702.366 102.722 702.618 102.636 702.82 102.466C703.021 102.293 703.173 102.057 703.276 101.759C703.381 101.46 703.433 101.121 703.433 100.74C703.433 100.359 703.381 100.02 703.276 99.7216C703.173 99.4233 703.021 99.1875 702.82 99.0142C702.618 98.8409 702.366 98.7543 702.065 98.7543C701.761 98.7543 701.506 98.8409 701.298 99.0142C701.094 99.1875 700.939 99.4233 700.834 99.7216C700.732 100.02 700.68 100.359 700.68 100.74C700.68 101.121 700.732 101.46 700.834 101.759C700.939 102.057 701.094 102.293 701.298 102.466C701.506 102.636 701.761 102.722 702.065 102.722ZM706.459 97.4545H708.274V104.324C708.274 104.83 708.175 105.239 707.976 105.551C707.777 105.864 707.491 106.092 707.119 106.237C706.75 106.382 706.308 106.455 705.794 106.455C705.732 106.455 705.672 106.453 705.615 106.45C705.555 106.45 705.493 106.449 705.428 106.446V105.027C705.476 105.03 705.518 105.031 705.555 105.031C705.589 105.034 705.626 105.036 705.666 105.036C705.959 105.036 706.163 104.973 706.28 104.848C706.399 104.726 706.459 104.541 706.459 104.294V97.4545ZM707.362 96.6108C707.095 96.6108 706.865 96.5213 706.672 96.3423C706.479 96.1605 706.382 95.9432 706.382 95.6903C706.382 95.4403 706.479 95.2259 706.672 95.0469C706.865 94.8651 707.095 94.7741 707.362 94.7741C707.635 94.7741 707.866 94.8651 708.057 95.0469C708.25 95.2259 708.347 95.4403 708.347 95.6903C708.347 95.9432 708.25 96.1605 708.057 96.3423C707.866 96.5213 707.635 96.6108 707.362 96.6108ZM712.711 104.128C712.038 104.128 711.458 103.991 710.973 103.719C710.49 103.443 710.118 103.054 709.856 102.551C709.595 102.045 709.464 101.447 709.464 100.757C709.464 100.084 709.595 99.4929 709.856 98.9844C710.118 98.4759 710.485 98.0795 710.96 97.7955C711.437 97.5114 711.997 97.3693 712.639 97.3693C713.071 97.3693 713.473 97.4389 713.845 97.5781C714.22 97.7145 714.547 97.9205 714.825 98.196C715.106 98.4716 715.325 98.8182 715.481 99.2358C715.637 99.6506 715.716 100.136 715.716 100.693V101.192H710.189V100.067H714.007C714.007 99.8054 713.95 99.5739 713.836 99.3722C713.723 99.1705 713.565 99.0128 713.363 98.8991C713.164 98.7827 712.933 98.7244 712.669 98.7244C712.393 98.7244 712.149 98.7884 711.936 98.9162C711.725 99.0412 711.561 99.2102 711.441 99.4233C711.322 99.6335 711.261 99.8679 711.258 100.126V101.196C711.258 101.52 711.318 101.8 711.437 102.036C711.559 102.271 711.731 102.453 711.953 102.581C712.174 102.709 712.437 102.773 712.741 102.773C712.943 102.773 713.127 102.744 713.295 102.688C713.463 102.631 713.606 102.545 713.725 102.432C713.845 102.318 713.936 102.179 713.998 102.014L715.677 102.125C715.592 102.528 715.417 102.881 715.153 103.182C714.892 103.48 714.554 103.713 714.139 103.881C713.727 104.045 713.251 104.128 712.711 104.128ZM719.858 104.128C719.187 104.128 718.61 103.986 718.127 103.702C717.647 103.415 717.278 103.017 717.02 102.509C716.764 102 716.636 101.415 716.636 100.753C716.636 100.082 716.765 99.4943 717.024 98.9886C717.285 98.4801 717.656 98.0838 718.136 97.7997C718.616 97.5128 719.187 97.3693 719.849 97.3693C720.42 97.3693 720.92 97.473 721.349 97.6804C721.778 97.8878 722.118 98.179 722.368 98.554C722.618 98.929 722.755 99.3693 722.781 99.875H721.068C721.02 99.5483 720.892 99.2855 720.684 99.0866C720.48 98.8849 720.211 98.7841 719.879 98.7841C719.598 98.7841 719.352 98.8608 719.142 99.0142C718.934 99.1648 718.772 99.3849 718.656 99.6747C718.539 99.9645 718.481 100.315 718.481 100.727C718.481 101.145 718.538 101.5 718.652 101.793C718.768 102.085 718.931 102.308 719.142 102.462C719.352 102.615 719.598 102.692 719.879 102.692C720.086 102.692 720.272 102.649 720.437 102.564C720.605 102.479 720.743 102.355 720.85 102.193C720.961 102.028 721.034 101.831 721.068 101.601H722.781C722.752 102.101 722.616 102.541 722.372 102.922C722.13 103.3 721.797 103.595 721.37 103.808C720.944 104.021 720.44 104.128 719.858 104.128ZM727.425 97.4545V98.8182H723.483V97.4545H727.425ZM724.378 95.8864H726.193V101.989C726.193 102.156 726.219 102.287 726.27 102.381C726.321 102.472 726.392 102.536 726.483 102.572C726.577 102.609 726.685 102.628 726.807 102.628C726.892 102.628 726.977 102.621 727.062 102.607C727.148 102.589 727.213 102.577 727.259 102.568L727.544 103.919C727.453 103.947 727.325 103.98 727.161 104.017C726.996 104.057 726.795 104.081 726.56 104.089C726.122 104.107 725.739 104.048 725.409 103.915C725.082 103.781 724.828 103.574 724.646 103.293C724.464 103.011 724.375 102.656 724.378 102.227V95.8864ZM733.971 99.321L732.309 99.4233C732.281 99.2812 732.22 99.1534 732.126 99.0398C732.032 98.9233 731.909 98.831 731.755 98.7628C731.605 98.6918 731.424 98.6562 731.214 98.6562C730.933 98.6562 730.696 98.7159 730.502 98.8352C730.309 98.9517 730.213 99.108 730.213 99.304C730.213 99.4602 730.275 99.5923 730.4 99.7003C730.525 99.8082 730.74 99.8949 731.044 99.9602L732.228 100.199C732.865 100.33 733.339 100.54 733.652 100.83C733.964 101.119 734.12 101.5 734.12 101.972C734.12 102.401 733.994 102.777 733.741 103.101C733.491 103.425 733.147 103.678 732.71 103.859C732.275 104.038 731.774 104.128 731.206 104.128C730.339 104.128 729.649 103.947 729.135 103.587C728.623 103.223 728.324 102.729 728.235 102.104L730.021 102.01C730.075 102.274 730.206 102.476 730.413 102.615C730.62 102.751 730.886 102.82 731.21 102.82C731.528 102.82 731.784 102.759 731.977 102.636C732.173 102.511 732.272 102.351 732.275 102.155C732.272 101.99 732.203 101.855 732.066 101.75C731.93 101.642 731.72 101.56 731.436 101.503L730.302 101.277C729.663 101.149 729.187 100.928 728.875 100.612C728.565 100.297 728.41 99.8949 728.41 99.4062C728.41 98.9858 728.524 98.6236 728.751 98.3196C728.981 98.0156 729.304 97.7812 729.718 97.6165C730.136 97.4517 730.625 97.3693 731.184 97.3693C732.011 97.3693 732.662 97.544 733.136 97.8935C733.613 98.2429 733.892 98.7187 733.971 99.321ZM739.579 104H737.602L740.615 95.2727H742.993L746.001 104H744.024L741.838 97.267H741.77L739.579 104ZM739.456 100.57H744.126V102.01H739.456V100.57ZM749.67 104.128C749 104.128 748.423 103.986 747.94 103.702C747.46 103.415 747.091 103.017 746.832 102.509C746.576 102 746.449 101.415 746.449 100.753C746.449 100.082 746.578 99.4943 746.836 98.9886C747.098 98.4801 747.468 98.0838 747.949 97.7997C748.429 97.5128 749 97.3693 749.662 97.3693C750.233 97.3693 750.733 97.473 751.162 97.6804C751.591 97.8878 751.93 98.179 752.18 98.554C752.43 98.929 752.568 99.3693 752.593 99.875H750.88C750.832 99.5483 750.704 99.2855 750.497 99.0866C750.292 98.8849 750.024 98.7841 749.691 98.7841C749.41 98.7841 749.164 98.8608 748.954 99.0142C748.747 99.1648 748.585 99.3849 748.468 99.6747C748.352 99.9645 748.294 100.315 748.294 100.727C748.294 101.145 748.35 101.5 748.464 101.793C748.581 102.085 748.744 102.308 748.954 102.462C749.164 102.615 749.41 102.692 749.691 102.692C749.899 102.692 750.085 102.649 750.25 102.564C750.417 102.479 750.555 102.355 750.663 102.193C750.774 102.028 750.846 101.831 750.88 101.601H752.593C752.565 102.101 752.429 102.541 752.184 102.922C751.943 103.3 751.609 103.595 751.183 103.808C750.757 104.021 750.252 104.128 749.67 104.128ZM757.237 97.4545V98.8182H753.295V97.4545H757.237ZM754.19 95.8864H756.006V101.989C756.006 102.156 756.031 102.287 756.082 102.381C756.134 102.472 756.205 102.536 756.295 102.572C756.389 102.609 756.497 102.628 756.619 102.628C756.705 102.628 756.79 102.621 756.875 102.607C756.96 102.589 757.026 102.577 757.071 102.568L757.357 103.919C757.266 103.947 757.138 103.98 756.973 104.017C756.808 104.057 756.608 104.081 756.372 104.089C755.935 104.107 755.551 104.048 755.222 103.915C754.895 103.781 754.641 103.574 754.459 103.293C754.277 103.011 754.188 102.656 754.19 102.227V95.8864ZM758.42 104V97.4545H760.235V104H758.42ZM759.332 96.6108C759.062 96.6108 758.83 96.5213 758.637 96.3423C758.447 96.1605 758.352 95.9432 758.352 95.6903C758.352 95.4403 758.447 95.2259 758.637 95.0469C758.83 94.8651 759.062 94.7741 759.332 94.7741C759.602 94.7741 759.832 94.8651 760.022 95.0469C760.215 95.2259 760.312 95.4403 760.312 95.6903C760.312 95.9432 760.215 96.1605 760.022 96.3423C759.832 96.5213 759.602 96.6108 759.332 96.6108ZM764.647 104.128C763.985 104.128 763.412 103.987 762.929 103.706C762.449 103.422 762.078 103.027 761.817 102.521C761.556 102.013 761.425 101.423 761.425 100.753C761.425 100.077 761.556 99.4858 761.817 98.9801C762.078 98.4716 762.449 98.0767 762.929 97.7955C763.412 97.5114 763.985 97.3693 764.647 97.3693C765.309 97.3693 765.88 97.5114 766.36 97.7955C766.843 98.0767 767.215 98.4716 767.476 98.9801C767.738 99.4858 767.868 100.077 767.868 100.753C767.868 101.423 767.738 102.013 767.476 102.521C767.215 103.027 766.843 103.422 766.36 103.706C765.88 103.987 765.309 104.128 764.647 104.128ZM764.655 102.722C764.956 102.722 765.208 102.636 765.409 102.466C765.611 102.293 765.763 102.057 765.865 101.759C765.971 101.46 766.023 101.121 766.023 100.74C766.023 100.359 765.971 100.02 765.865 99.7216C765.763 99.4233 765.611 99.1875 765.409 99.0142C765.208 98.8409 764.956 98.7543 764.655 98.7543C764.351 98.7543 764.096 98.8409 763.888 99.0142C763.684 99.1875 763.529 99.4233 763.424 99.7216C763.321 100.02 763.27 100.359 763.27 100.74C763.27 101.121 763.321 101.46 763.424 101.759C763.529 102.057 763.684 102.293 763.888 102.466C764.096 102.636 764.351 102.722 764.655 102.722ZM770.864 100.216V104H769.049V97.4545H770.779V98.6094H770.855C771 98.2287 771.243 97.9276 771.584 97.706C771.925 97.4815 772.338 97.3693 772.824 97.3693C773.279 97.3693 773.675 97.4688 774.013 97.6676C774.351 97.8665 774.614 98.1506 774.801 98.5199C774.989 98.8864 775.083 99.3239 775.083 99.8324V104H773.267V100.156C773.27 99.7557 773.168 99.4432 772.961 99.2188C772.753 98.9915 772.468 98.8778 772.104 98.8778C771.86 98.8778 771.644 98.9304 771.456 99.0355C771.272 99.1406 771.127 99.294 771.022 99.4957C770.919 99.6946 770.867 99.9347 770.864 100.216ZM781.96 99.321L780.298 99.4233C780.269 99.2812 780.208 99.1534 780.114 99.0398C780.021 98.9233 779.897 98.831 779.744 98.7628C779.593 98.6918 779.413 98.6562 779.202 98.6562C778.921 98.6562 778.684 98.7159 778.491 98.8352C778.298 98.9517 778.201 99.108 778.201 99.304C778.201 99.4602 778.263 99.5923 778.388 99.7003C778.513 99.8082 778.728 99.8949 779.032 99.9602L780.217 100.199C780.853 100.33 781.327 100.54 781.64 100.83C781.952 101.119 782.109 101.5 782.109 101.972C782.109 102.401 781.982 102.777 781.729 103.101C781.479 103.425 781.136 103.678 780.698 103.859C780.263 104.038 779.762 104.128 779.194 104.128C778.327 104.128 777.637 103.947 777.123 103.587C776.612 103.223 776.312 102.729 776.224 102.104L778.009 102.01C778.063 102.274 778.194 102.476 778.401 102.615C778.609 102.751 778.874 102.82 779.198 102.82C779.516 102.82 779.772 102.759 779.965 102.636C780.161 102.511 780.261 102.351 780.263 102.155C780.261 101.99 780.191 101.855 780.055 101.75C779.918 101.642 779.708 101.56 779.424 101.503L778.29 101.277C777.651 101.149 777.175 100.928 776.863 100.612C776.553 100.297 776.398 99.8949 776.398 99.4062C776.398 98.9858 776.512 98.6236 776.739 98.3196C776.969 98.0156 777.292 97.7812 777.707 97.6165C778.124 97.4517 778.613 97.3693 779.173 97.3693C779.999 97.3693 780.65 97.544 781.124 97.8935C781.602 98.2429 781.88 98.7187 781.96 99.321Z" fill="#292253"/>
</g>
<defs>
<filter id="filter0_ddd_1_253" x="-5" y="-2" width="1450" height="62" filterUnits="userSpaceOnUse" color-interpolation-filters="sRGB">
<feFlood flood-opacity="0" result="BackgroundImageFix"/>
<feColorMatrix in="SourceAlpha" type="matrix" values="0 0 0 0 0 0 0 0 0 0 0 0 0 0 0 0 0 0 127 0" result="hardAlpha"/>
<feOffset dy="1"/>
<feGaussianBlur stdDeviation="2.5"/>
<feColorMatrix type="matrix" values="0 0 0 0 0 0 0 0 0 0 0 0 0 0 0 0 0 0 0.12 0"/>
<feBlend mode="normal" in2="BackgroundImageFix" result="effect1_dropShadow_1_253"/>
<feColorMatrix in="SourceAlpha" type="matrix" values="0 0 0 0 0 0 0 0 0 0 0 0 0 0 0 0 0 0 127 0" result="hardAlpha"/>
<feOffset dy="2"/>
<feGaussianBlur stdDeviation="1"/>
<feColorMatrix type="matrix" values="0 0 0 0 0 0 0 0 0 0 0 0 0 0 0 0 0 0 0.14 0"/>
<feBlend mode="normal" in2="effect1_dropShadow_1_253" result="effect2_dropShadow_1_253"/>
<feColorMatrix in="SourceAlpha" type="matrix" values="0 0 0 0 0 0 0 0 0 0 0 0 0 0 0 0 0 0 127 0" result="hardAlpha"/>
<feMorphology radius="2" operator="erode" in="SourceAlpha" result="effect3_dropShadow_1_253"/>
<feOffset dy="3"/>
<feGaussianBlur stdDeviation="0.5"/>
<feColorMatrix type="matrix" values="0 0 0 0 0 0 0 0 0 0 0 0 0 0 0 0 0 0 0.2 0"/>
<feBlend mode="normal" in2="effect2_dropShadow_1_253" result="effect3_dropShadow_1_253"/>
<feBlend mode="normal" in="SourceGraphic" in2="effect3_dropShadow_1_253" result="shape"/>
</filter>
<clipPath id="clip0_1_253">
<rect width="1440" height="136" rx="4" fill="white"/>
</clipPath>
<clipPath id="clip1_1_253">
<rect x="3" y="5" width="1434" height="46" rx="4" fill="white"/>
</clipPath>
</defs>
</svg>
