<svg width="728" height="1024" viewBox="0 0 728 1024" fill="none" xmlns="http://www.w3.org/2000/svg">
<g clip-path="url(#clip0_1_577)">
<rect width="728" height="1024" rx="4" fill="white"/>
<rect x="-444" y="59" width="812" height="952" rx="4" fill="#292253" fill-opacity="0.26"/>
<path d="M673 67C673 64.7909 674.791 63 677 63H711C713.209 63 715 64.7909 715 67V1004C715 1006.21 713.209 1008 711 1008H677C674.791 1008 673 1006.21 673 1004V67Z" fill="#E8E9F0"/>
<path d="M673 66.9706C673 64.7777 673.308 63 673.689 63H714.311C714.692 63 715 64.7777 715 66.9706V1004.03C715 1006.22 714.692 1008 714.311 1008H673.689C673.308 1008 673 1006.22 673 1004.03V66.9706Z" fill="#E8E9F0"/>
<path d="M716 57.5H714.344H380.656H379C375.962 57.5 373.5 59.9624 373.5 63V1007C373.5 1010.04 375.962 1012.5 379 1012.5H380.656H714.344H716C719.038 1012.5 721.5 1010.04 721.5 1007V63C721.5 59.9624 719.038 57.5 716 57.5Z" stroke="#9747FF" stroke-width="3"/>
<path d="M383 145C383 142.791 384.791 141 387 141H661C663.209 141 665 142.791 665 145V363C665 365.209 663.209 367 661 367H387C384.791 367 383 365.209 383 363V145Z" fill="#E8E9F0"/>
<path d="M383 141.95C383 141.425 385.07 141 387.623 141H660.377C662.93 141 665 141.425 665 141.95V366.05C665 366.575 662.93 367 660.377 367H387.623C385.07 367 383 366.575 383 366.05V141.95Z" fill="#E8E9F0"/>
<path d="M383 383C383 380.791 384.791 379 387 379H661C663.209 379 665 380.791 665 383V458C665 460.209 663.209 462 661 462H387C384.791 462 383 460.209 383 458V383Z" fill="#E8E9F0"/>
<path d="M383 379.349C383 379.156 385.07 379 387.623 379H660.377C662.93 379 665 379.156 665 379.349V461.651C665 461.844 662.93 462 660.377 462H387.623C385.07 462 383 461.844 383 461.651V379.349Z" fill="#E8E9F0"/>
<path d="M383 478C383 475.791 384.791 474 387 474H661C663.209 474 665 475.791 665 478V832C665 834.209 663.209 836 661 836H387C384.791 836 383 834.209 383 832V478Z" fill="#E8E9F0"/>
<path d="M383 475.521C383 474.681 385.07 474 387.623 474H660.377C662.93 474 665 474.681 665 475.521V834.479C665 835.319 662.93 836 660.377 836H387.623C385.07 836 383 835.319 383 834.479V475.521Z" fill="#E8E9F0"/>
<g clip-path="url(#clip1_1_577)" filter="url(#filter0_ddd_1_577)">
<rect width="728" height="51" fill="#292253"/>
<rect x="-712" width="1998" height="5" fill="#FBBF52"/>
<rect x="-77" y="13" width="159" height="32" rx="4" fill="white"/>
<circle cx="694" cy="29" r="16" fill="white"/>
<circle cx="107" cy="29" r="16" fill="white"/>
</g>
<circle cx="694" cy="83" r="16" fill="#292253" fill-opacity="0.26"/>
<circle cx="694" cy="118" r="16" fill="#292253" fill-opacity="0.26"/>
<path d="M418.894 79.61C419.454 79.61 419.947 79.5433 420.374 79.41C420.807 79.27 421.167 79.0767 421.454 78.83C421.747 78.5767 421.967 78.2767 422.114 77.93C422.26 77.5833 422.334 77.2 422.334 76.78C422.334 75.9267 422.054 75.2833 421.494 74.85C420.934 74.4167 420.094 74.2 418.974 74.2H416.854V79.61H418.894ZM425.514 87H423.794C423.44 87 423.18 86.8633 423.014 86.59L419.294 81.47C419.18 81.31 419.057 81.1967 418.924 81.13C418.797 81.0567 418.597 81.02 418.324 81.02H416.854V87H414.924V72.67H418.974C419.88 72.67 420.664 72.7633 421.324 72.95C421.984 73.13 422.527 73.3933 422.954 73.74C423.387 74.0867 423.707 74.5067 423.914 75C424.12 75.4867 424.224 76.0333 424.224 76.64C424.224 77.1467 424.144 77.62 423.984 78.06C423.824 78.5 423.59 78.8967 423.284 79.25C422.984 79.5967 422.614 79.8933 422.174 80.14C421.74 80.3867 421.247 80.5733 420.694 80.7C420.94 80.84 421.154 81.0433 421.334 81.31L425.514 87ZM433.328 80.83C433.328 80.4167 433.268 80.04 433.148 79.7C433.035 79.3533 432.865 79.0567 432.638 78.81C432.418 78.5567 432.148 78.3633 431.828 78.23C431.508 78.09 431.145 78.02 430.738 78.02C429.885 78.02 429.208 78.27 428.708 78.77C428.215 79.2633 427.908 79.95 427.788 80.83H433.328ZM434.768 85.58C434.548 85.8467 434.285 86.08 433.978 86.28C433.672 86.4733 433.342 86.6333 432.988 86.76C432.642 86.8867 432.282 86.98 431.908 87.04C431.535 87.1067 431.165 87.14 430.798 87.14C430.098 87.14 429.452 87.0233 428.858 86.79C428.272 86.55 427.762 86.2033 427.328 85.75C426.902 85.29 426.568 84.7233 426.328 84.05C426.088 83.3767 425.968 82.6033 425.968 81.73C425.968 81.0233 426.075 80.3633 426.288 79.75C426.508 79.1367 426.822 78.6067 427.228 78.16C427.635 77.7067 428.132 77.3533 428.718 77.1C429.305 76.84 429.965 76.71 430.698 76.71C431.305 76.71 431.865 76.8133 432.378 77.02C432.898 77.22 433.345 77.5133 433.718 77.9C434.098 78.28 434.395 78.7533 434.608 79.32C434.822 79.88 434.928 80.52 434.928 81.24C434.928 81.52 434.898 81.7067 434.838 81.8C434.778 81.8933 434.665 81.94 434.498 81.94H427.728C427.748 82.58 427.835 83.1367 427.988 83.61C428.148 84.0833 428.368 84.48 428.648 84.8C428.928 85.1133 429.262 85.35 429.648 85.51C430.035 85.6633 430.468 85.74 430.948 85.74C431.395 85.74 431.778 85.69 432.098 85.59C432.425 85.4833 432.705 85.37 432.938 85.25C433.172 85.13 433.365 85.02 433.518 84.92C433.678 84.8133 433.815 84.76 433.928 84.76C434.075 84.76 434.188 84.8167 434.268 84.93L434.768 85.58ZM439.105 72.27V87H437.325V72.27H439.105ZM447.631 82.44C446.811 82.4667 446.111 82.5333 445.531 82.64C444.958 82.74 444.488 82.8733 444.121 83.04C443.761 83.2067 443.498 83.4033 443.331 83.63C443.171 83.8567 443.091 84.11 443.091 84.39C443.091 84.6567 443.135 84.8867 443.221 85.08C443.308 85.2733 443.425 85.4333 443.571 85.56C443.725 85.68 443.901 85.77 444.101 85.83C444.308 85.8833 444.528 85.91 444.761 85.91C445.075 85.91 445.361 85.88 445.621 85.82C445.881 85.7533 446.125 85.66 446.351 85.54C446.585 85.42 446.805 85.2767 447.011 85.11C447.225 84.9433 447.431 84.7533 447.631 84.54V82.44ZM441.881 78.3C442.441 77.76 443.045 77.3567 443.691 77.09C444.338 76.8233 445.055 76.69 445.841 76.69C446.408 76.69 446.911 76.7833 447.351 76.97C447.791 77.1567 448.161 77.4167 448.461 77.75C448.761 78.0833 448.988 78.4867 449.141 78.96C449.295 79.4333 449.371 79.9533 449.371 80.52V87H448.581C448.408 87 448.275 86.9733 448.181 86.92C448.088 86.86 448.015 86.7467 447.961 86.58L447.761 85.62C447.495 85.8667 447.235 86.0867 446.981 86.28C446.728 86.4667 446.461 86.6267 446.181 86.76C445.901 86.8867 445.601 86.9833 445.281 87.05C444.968 87.1233 444.618 87.16 444.231 87.16C443.838 87.16 443.468 87.1067 443.121 87C442.775 86.8867 442.471 86.72 442.211 86.5C441.958 86.28 441.755 86.0033 441.601 85.67C441.455 85.33 441.381 84.93 441.381 84.47C441.381 84.07 441.491 83.6867 441.711 83.32C441.931 82.9467 442.288 82.6167 442.781 82.33C443.275 82.0433 443.918 81.81 444.711 81.63C445.505 81.4433 446.478 81.3367 447.631 81.31V80.52C447.631 79.7333 447.461 79.14 447.121 78.74C446.781 78.3333 446.285 78.13 445.631 78.13C445.191 78.13 444.821 78.1867 444.521 78.3C444.228 78.4067 443.971 78.53 443.751 78.67C443.538 78.8033 443.351 78.9267 443.191 79.04C443.038 79.1467 442.885 79.2 442.731 79.2C442.611 79.2 442.508 79.17 442.421 79.11C442.335 79.0433 442.261 78.9633 442.201 78.87L441.881 78.3ZM455.206 87.16C454.406 87.16 453.789 86.9367 453.356 86.49C452.929 86.0433 452.716 85.4 452.716 84.56V78.36H451.496C451.389 78.36 451.299 78.33 451.226 78.27C451.153 78.2033 451.116 78.1033 451.116 77.97V77.26L452.776 77.05L453.186 73.92C453.206 73.82 453.249 73.74 453.316 73.68C453.389 73.6133 453.483 73.58 453.596 73.58H454.496V77.07H457.426V78.36H454.496V84.44C454.496 84.8667 454.599 85.1833 454.806 85.39C455.013 85.5967 455.279 85.7 455.606 85.7C455.793 85.7 455.953 85.6767 456.086 85.63C456.226 85.5767 456.346 85.52 456.446 85.46C456.546 85.4 456.629 85.3467 456.696 85.3C456.769 85.2467 456.833 85.22 456.886 85.22C456.979 85.22 457.063 85.2767 457.136 85.39L457.656 86.24C457.349 86.5267 456.979 86.7533 456.546 86.92C456.113 87.08 455.666 87.16 455.206 87.16ZM466.135 80.83C466.135 80.4167 466.075 80.04 465.955 79.7C465.842 79.3533 465.672 79.0567 465.445 78.81C465.225 78.5567 464.955 78.3633 464.635 78.23C464.315 78.09 463.952 78.02 463.545 78.02C462.692 78.02 462.015 78.27 461.515 78.77C461.022 79.2633 460.715 79.95 460.595 80.83H466.135ZM467.575 85.58C467.355 85.8467 467.092 86.08 466.785 86.28C466.479 86.4733 466.149 86.6333 465.795 86.76C465.449 86.8867 465.089 86.98 464.715 87.04C464.342 87.1067 463.972 87.14 463.605 87.14C462.905 87.14 462.259 87.0233 461.665 86.79C461.079 86.55 460.569 86.2033 460.135 85.75C459.709 85.29 459.375 84.7233 459.135 84.05C458.895 83.3767 458.775 82.6033 458.775 81.73C458.775 81.0233 458.882 80.3633 459.095 79.75C459.315 79.1367 459.629 78.6067 460.035 78.16C460.442 77.7067 460.939 77.3533 461.525 77.1C462.112 76.84 462.772 76.71 463.505 76.71C464.112 76.71 464.672 76.8133 465.185 77.02C465.705 77.22 466.152 77.5133 466.525 77.9C466.905 78.28 467.202 78.7533 467.415 79.32C467.629 79.88 467.735 80.52 467.735 81.24C467.735 81.52 467.705 81.7067 467.645 81.8C467.585 81.8933 467.472 81.94 467.305 81.94H460.535C460.555 82.58 460.642 83.1367 460.795 83.61C460.955 84.0833 461.175 84.48 461.455 84.8C461.735 85.1133 462.069 85.35 462.455 85.51C462.842 85.6633 463.275 85.74 463.755 85.74C464.202 85.74 464.585 85.69 464.905 85.59C465.232 85.4833 465.512 85.37 465.745 85.25C465.979 85.13 466.172 85.02 466.325 84.92C466.485 84.8133 466.622 84.76 466.735 84.76C466.882 84.76 466.995 84.8167 467.075 84.93L467.575 85.58ZM476.672 79.28C476.338 78.8333 475.978 78.5233 475.592 78.35C475.205 78.17 474.772 78.08 474.292 78.08C473.352 78.08 472.628 78.4167 472.122 79.09C471.615 79.7633 471.362 80.7233 471.362 81.97C471.362 82.63 471.418 83.1967 471.532 83.67C471.645 84.1367 471.812 84.5233 472.032 84.83C472.252 85.13 472.522 85.35 472.842 85.49C473.162 85.63 473.525 85.7 473.932 85.7C474.518 85.7 475.028 85.5667 475.462 85.3C475.902 85.0333 476.305 84.6567 476.672 84.17V79.28ZM478.452 72.27V87H477.392C477.138 87 476.978 86.8767 476.912 86.63L476.752 85.4C476.318 85.92 475.825 86.34 475.272 86.66C474.718 86.98 474.078 87.14 473.352 87.14C472.772 87.14 472.245 87.03 471.772 86.81C471.298 86.5833 470.895 86.2533 470.562 85.82C470.228 85.3867 469.972 84.8467 469.792 84.2C469.612 83.5533 469.522 82.81 469.522 81.97C469.522 81.2233 469.622 80.53 469.822 79.89C470.022 79.2433 470.308 78.6833 470.682 78.21C471.055 77.7367 471.512 77.3667 472.052 77.1C472.598 76.8267 473.212 76.69 473.892 76.69C474.512 76.69 475.042 76.7967 475.482 77.01C475.928 77.2167 476.325 77.5067 476.672 77.88V72.27H478.452ZM495.94 85.42L495.93 87H487.1V72.67H495.93V74.25H489.04V79.01H494.62V80.53H489.04V85.42H495.94ZM500.116 72.27V87H498.336V72.27H500.116ZM509.932 80.83C509.932 80.4167 509.872 80.04 509.752 79.7C509.639 79.3533 509.469 79.0567 509.242 78.81C509.022 78.5567 508.752 78.3633 508.432 78.23C508.112 78.09 507.749 78.02 507.342 78.02C506.489 78.02 505.812 78.27 505.312 78.77C504.819 79.2633 504.512 79.95 504.392 80.83H509.932ZM511.372 85.58C511.152 85.8467 510.889 86.08 510.582 86.28C510.276 86.4733 509.946 86.6333 509.592 86.76C509.246 86.8867 508.886 86.98 508.512 87.04C508.139 87.1067 507.769 87.14 507.402 87.14C506.702 87.14 506.056 87.0233 505.462 86.79C504.876 86.55 504.366 86.2033 503.932 85.75C503.506 85.29 503.172 84.7233 502.932 84.05C502.692 83.3767 502.572 82.6033 502.572 81.73C502.572 81.0233 502.679 80.3633 502.892 79.75C503.112 79.1367 503.426 78.6067 503.832 78.16C504.239 77.7067 504.736 77.3533 505.322 77.1C505.909 76.84 506.569 76.71 507.302 76.71C507.909 76.71 508.469 76.8133 508.982 77.02C509.502 77.22 509.949 77.5133 510.322 77.9C510.702 78.28 510.999 78.7533 511.212 79.32C511.426 79.88 511.532 80.52 511.532 81.24C511.532 81.52 511.502 81.7067 511.442 81.8C511.382 81.8933 511.269 81.94 511.102 81.94H504.332C504.352 82.58 504.439 83.1367 504.592 83.61C504.752 84.0833 504.972 84.48 505.252 84.8C505.532 85.1133 505.866 85.35 506.252 85.51C506.639 85.6633 507.072 85.74 507.552 85.74C507.999 85.74 508.382 85.69 508.702 85.59C509.029 85.4833 509.309 85.37 509.542 85.25C509.776 85.13 509.969 85.02 510.122 84.92C510.282 84.8133 510.419 84.76 510.532 84.76C510.679 84.76 510.792 84.8167 510.872 84.93L511.372 85.58ZM513.869 87V76.87H514.939C515.192 76.87 515.349 76.9933 515.409 77.24L515.539 78.28C515.912 77.82 516.332 77.4433 516.799 77.15C517.265 76.8567 517.805 76.71 518.419 76.71C519.099 76.71 519.649 76.9 520.069 77.28C520.495 77.66 520.802 78.1733 520.989 78.82C521.135 78.4533 521.322 78.1367 521.549 77.87C521.782 77.6033 522.042 77.3833 522.329 77.21C522.615 77.0367 522.919 76.91 523.239 76.83C523.565 76.75 523.895 76.71 524.229 76.71C524.762 76.71 525.235 76.7967 525.649 76.97C526.069 77.1367 526.422 77.3833 526.709 77.71C527.002 78.0367 527.225 78.44 527.379 78.92C527.532 79.3933 527.609 79.9367 527.609 80.55V87H525.819V80.55C525.819 79.7567 525.645 79.1567 525.299 78.75C524.952 78.3367 524.452 78.13 523.799 78.13C523.505 78.13 523.225 78.1833 522.959 78.29C522.699 78.39 522.469 78.54 522.269 78.74C522.069 78.94 521.909 79.1933 521.789 79.5C521.675 79.8 521.619 80.15 521.619 80.55V87H519.829V80.55C519.829 79.7367 519.665 79.13 519.339 78.73C519.012 78.33 518.535 78.13 517.909 78.13C517.469 78.13 517.062 78.25 516.689 78.49C516.315 78.7233 515.972 79.0433 515.659 79.45V87H513.869ZM537.244 80.83C537.244 80.4167 537.184 80.04 537.064 79.7C536.951 79.3533 536.781 79.0567 536.554 78.81C536.334 78.5567 536.064 78.3633 535.744 78.23C535.424 78.09 535.061 78.02 534.654 78.02C533.801 78.02 533.124 78.27 532.624 78.77C532.131 79.2633 531.824 79.95 531.704 80.83H537.244ZM538.684 85.58C538.464 85.8467 538.201 86.08 537.894 86.28C537.587 86.4733 537.257 86.6333 536.904 86.76C536.557 86.8867 536.197 86.98 535.824 87.04C535.451 87.1067 535.081 87.14 534.714 87.14C534.014 87.14 533.367 87.0233 532.774 86.79C532.187 86.55 531.677 86.2033 531.244 85.75C530.817 85.29 530.484 84.7233 530.244 84.05C530.004 83.3767 529.884 82.6033 529.884 81.73C529.884 81.0233 529.991 80.3633 530.204 79.75C530.424 79.1367 530.737 78.6067 531.144 78.16C531.551 77.7067 532.047 77.3533 532.634 77.1C533.221 76.84 533.881 76.71 534.614 76.71C535.221 76.71 535.781 76.8133 536.294 77.02C536.814 77.22 537.261 77.5133 537.634 77.9C538.014 78.28 538.311 78.7533 538.524 79.32C538.737 79.88 538.844 80.52 538.844 81.24C538.844 81.52 538.814 81.7067 538.754 81.8C538.694 81.8933 538.581 81.94 538.414 81.94H531.644C531.664 82.58 531.751 83.1367 531.904 83.61C532.064 84.0833 532.284 84.48 532.564 84.8C532.844 85.1133 533.177 85.35 533.564 85.51C533.951 85.6633 534.384 85.74 534.864 85.74C535.311 85.74 535.694 85.69 536.014 85.59C536.341 85.4833 536.621 85.37 536.854 85.25C537.087 85.13 537.281 85.02 537.434 84.92C537.594 84.8133 537.731 84.76 537.844 84.76C537.991 84.76 538.104 84.8167 538.184 84.93L538.684 85.58ZM542.86 78.34C543.08 78.0933 543.314 77.87 543.56 77.67C543.807 77.47 544.067 77.3 544.34 77.16C544.62 77.0133 544.914 76.9033 545.22 76.83C545.534 76.75 545.87 76.71 546.23 76.71C546.784 76.71 547.27 76.8033 547.69 76.99C548.117 77.17 548.47 77.43 548.75 77.77C549.037 78.1033 549.254 78.5067 549.4 78.98C549.547 79.4533 549.62 79.9767 549.62 80.55V87H547.83V80.55C547.83 79.7833 547.654 79.19 547.3 78.77C546.954 78.3433 546.424 78.13 545.71 78.13C545.184 78.13 544.69 78.2567 544.23 78.51C543.777 78.7633 543.357 79.1067 542.97 79.54V87H541.18V76.87H542.25C542.504 76.87 542.66 76.9933 542.72 77.24L542.86 78.34ZM555.456 87.16C554.656 87.16 554.039 86.9367 553.606 86.49C553.179 86.0433 552.966 85.4 552.966 84.56V78.36H551.746C551.639 78.36 551.549 78.33 551.476 78.27C551.403 78.2033 551.366 78.1033 551.366 77.97V77.26L553.026 77.05L553.436 73.92C553.456 73.82 553.499 73.74 553.566 73.68C553.639 73.6133 553.733 73.58 553.846 73.58H554.746V77.07H557.676V78.36H554.746V84.44C554.746 84.8667 554.849 85.1833 555.056 85.39C555.263 85.5967 555.529 85.7 555.856 85.7C556.043 85.7 556.203 85.6767 556.336 85.63C556.476 85.5767 556.596 85.52 556.696 85.46C556.796 85.4 556.879 85.3467 556.946 85.3C557.019 85.2467 557.083 85.22 557.136 85.22C557.229 85.22 557.313 85.2767 557.386 85.39L557.906 86.24C557.599 86.5267 557.229 86.7533 556.796 86.92C556.363 87.08 555.916 87.16 555.456 87.16ZM565.564 78.54C565.484 78.6867 565.361 78.76 565.194 78.76C565.094 78.76 564.981 78.7233 564.854 78.65C564.727 78.5767 564.571 78.4967 564.384 78.41C564.204 78.3167 563.987 78.2333 563.734 78.16C563.481 78.08 563.181 78.04 562.834 78.04C562.534 78.04 562.264 78.08 562.024 78.16C561.784 78.2333 561.577 78.3367 561.404 78.47C561.237 78.6033 561.107 78.76 561.014 78.94C560.927 79.1133 560.884 79.3033 560.884 79.51C560.884 79.77 560.957 79.9867 561.104 80.16C561.257 80.3333 561.457 80.4833 561.704 80.61C561.951 80.7367 562.231 80.85 562.544 80.95C562.857 81.0433 563.177 81.1467 563.504 81.26C563.837 81.3667 564.161 81.4867 564.474 81.62C564.787 81.7533 565.067 81.92 565.314 82.12C565.561 82.32 565.757 82.5667 565.904 82.86C566.057 83.1467 566.134 83.4933 566.134 83.9C566.134 84.3667 566.051 84.8 565.884 85.2C565.717 85.5933 565.471 85.9367 565.144 86.23C564.817 86.5167 564.417 86.7433 563.944 86.91C563.471 87.0767 562.924 87.16 562.304 87.16C561.597 87.16 560.957 87.0467 560.384 86.82C559.811 86.5867 559.324 86.29 558.924 85.93L559.344 85.25C559.397 85.1633 559.461 85.0967 559.534 85.05C559.607 85.0033 559.701 84.98 559.814 84.98C559.934 84.98 560.061 85.0267 560.194 85.12C560.327 85.2133 560.487 85.3167 560.674 85.43C560.867 85.5433 561.101 85.6467 561.374 85.74C561.647 85.8333 561.987 85.88 562.394 85.88C562.741 85.88 563.044 85.8367 563.304 85.75C563.564 85.6567 563.781 85.5333 563.954 85.38C564.127 85.2267 564.254 85.05 564.334 84.85C564.421 84.65 564.464 84.4367 564.464 84.21C564.464 83.93 564.387 83.7 564.234 83.52C564.087 83.3333 563.891 83.1767 563.644 83.05C563.397 82.9167 563.114 82.8033 562.794 82.71C562.481 82.61 562.157 82.5067 561.824 82.4C561.497 82.2933 561.174 82.1733 560.854 82.04C560.541 81.9 560.261 81.7267 560.014 81.52C559.767 81.3133 559.567 81.06 559.414 80.76C559.267 80.4533 559.194 80.0833 559.194 79.65C559.194 79.2633 559.274 78.8933 559.434 78.54C559.594 78.18 559.827 77.8667 560.134 77.6C560.441 77.3267 560.817 77.11 561.264 76.95C561.711 76.79 562.221 76.71 562.794 76.71C563.461 76.71 564.057 76.8167 564.584 77.03C565.117 77.2367 565.577 77.5233 565.964 77.89L565.564 78.54Z" fill="#292253"/>
<rect x="713" y="138" width="2" height="30" fill="#292253"/>
<path d="M685.9 153C685.9 151.29 687.29 149.9 689 149.9H693V148H689C686.24 148 684 150.24 684 153C684 155.76 686.24 158 689 158H693V156.1H689C687.29 156.1 685.9 154.71 685.9 153ZM690 154H698V152H690V154ZM699 148H695V149.9H699C700.71 149.9 702.1 151.29 702.1 153C702.1 154.71 700.71 156.1 699 156.1H695V158H699C701.76 158 704 155.76 704 153C704 150.24 701.76 148 699 148Z" fill="#292253"/>
<path d="M397.96 77.29L395.21 80.83L393.25 78.47L390.5 82H401.5L397.96 77.29ZM385 72H383V88C383 89.1 383.9 90 385 90H401V88H385V72ZM403 68H389C387.9 68 387 68.9 387 70V84C387 85.1 387.9 86 389 86H403C404.1 86 405 85.1 405 84V70C405 68.9 404.1 68 403 68ZM403 84H389V70H403V84Z" fill="#292253"/>
<g filter="url(#filter1_ddd_1_577)">
<g clip-path="url(#clip2_1_577)">
<rect x="384" y="97" width="282" height="32" rx="4" fill="#E8E9F0"/>
<rect width="96" height="32" transform="translate(384 97)" fill="#E8E9F0"/>
<path d="M396.737 118H395.239V107.948H396.737V118ZM407.85 107.948V118H407.094C406.977 118 406.879 117.979 406.8 117.937C406.725 117.895 406.648 117.827 406.569 117.734L400.892 110.391C400.901 110.517 400.908 110.641 400.913 110.762C400.922 110.883 400.927 110.998 400.927 111.105V118H399.618V107.948H400.388C400.518 107.948 400.616 107.964 400.682 107.997C400.747 108.025 400.819 108.093 400.899 108.2L406.59 115.55C406.576 115.415 406.564 115.284 406.555 115.158C406.55 115.027 406.548 114.906 406.548 114.794V107.948H407.85ZM417.757 115.844C417.841 115.844 417.914 115.877 417.974 115.942L418.562 116.586C418.152 117.071 417.65 117.447 417.057 117.713C416.469 117.979 415.76 118.112 414.929 118.112C414.201 118.112 413.541 117.986 412.948 117.734C412.36 117.482 411.856 117.13 411.436 116.677C411.021 116.224 410.699 115.683 410.47 115.053C410.242 114.423 410.127 113.73 410.127 112.974C410.127 112.218 410.246 111.525 410.484 110.895C410.727 110.265 411.065 109.724 411.499 109.271C411.933 108.818 412.451 108.466 413.053 108.214C413.66 107.962 414.33 107.836 415.062 107.836C415.776 107.836 416.411 107.953 416.966 108.186C417.522 108.419 418.005 108.73 418.415 109.117L417.925 109.81C417.893 109.861 417.851 109.903 417.799 109.936C417.753 109.969 417.69 109.985 417.61 109.985C417.522 109.985 417.417 109.941 417.295 109.852C417.179 109.763 417.022 109.665 416.826 109.558C416.635 109.446 416.397 109.346 416.112 109.257C415.828 109.168 415.473 109.124 415.048 109.124C414.549 109.124 414.092 109.213 413.676 109.39C413.261 109.563 412.902 109.815 412.598 110.146C412.3 110.473 412.066 110.876 411.898 111.357C411.735 111.833 411.653 112.372 411.653 112.974C411.653 113.585 411.74 114.129 411.912 114.605C412.085 115.081 412.323 115.485 412.626 115.816C412.93 116.147 413.287 116.399 413.697 116.572C414.108 116.745 414.551 116.831 415.027 116.831C415.317 116.831 415.576 116.815 415.804 116.782C416.038 116.745 416.25 116.691 416.441 116.621C416.637 116.551 416.822 116.462 416.994 116.355C417.167 116.243 417.337 116.11 417.505 115.956C417.543 115.923 417.582 115.898 417.624 115.879C417.666 115.856 417.711 115.844 417.757 115.844ZM429.635 112.974C429.635 113.725 429.514 114.416 429.271 115.046C429.033 115.671 428.695 116.213 428.256 116.67C427.817 117.123 427.292 117.475 426.681 117.727C426.07 117.979 425.391 118.105 424.644 118.105C423.902 118.105 423.223 117.979 422.607 117.727C421.996 117.475 421.471 117.123 421.032 116.67C420.598 116.213 420.26 115.671 420.017 115.046C419.774 114.416 419.653 113.725 419.653 112.974C419.653 112.227 419.774 111.539 420.017 110.909C420.26 110.279 420.598 109.738 421.032 109.285C421.471 108.828 421.996 108.473 422.607 108.221C423.223 107.964 423.902 107.836 424.644 107.836C425.391 107.836 426.07 107.964 426.681 108.221C427.292 108.473 427.817 108.828 428.256 109.285C428.695 109.738 429.033 110.279 429.271 110.909C429.514 111.539 429.635 112.227 429.635 112.974ZM428.109 112.974C428.109 112.377 428.027 111.84 427.864 111.364C427.701 110.888 427.467 110.484 427.164 110.153C426.865 109.822 426.501 109.567 426.072 109.39C425.647 109.213 425.171 109.124 424.644 109.124C424.117 109.124 423.638 109.213 423.209 109.39C422.784 109.567 422.42 109.822 422.117 110.153C421.814 110.484 421.58 110.888 421.417 111.364C421.254 111.84 421.172 112.377 421.172 112.974C421.172 113.576 421.254 114.115 421.417 114.591C421.58 115.062 421.814 115.464 422.117 115.795C422.42 116.126 422.784 116.381 423.209 116.558C423.638 116.731 424.117 116.817 424.644 116.817C425.171 116.817 425.647 116.731 426.072 116.558C426.501 116.381 426.865 116.126 427.164 115.795C427.467 115.464 427.701 115.062 427.864 114.591C428.027 114.115 428.109 113.576 428.109 112.974ZM442.477 107.948V118H441.175V110.846C441.175 110.739 441.178 110.624 441.182 110.503C441.192 110.382 441.201 110.258 441.21 110.132L437.864 116.271C437.748 116.5 437.568 116.614 437.325 116.614H437.115C436.873 116.614 436.695 116.5 436.583 116.271L433.174 110.111C433.202 110.372 433.216 110.617 433.216 110.846V118H431.907V107.948H433.013C433.144 107.948 433.244 107.962 433.314 107.99C433.389 108.013 433.459 108.083 433.524 108.2L436.884 114.22C436.95 114.341 437.01 114.47 437.066 114.605C437.122 114.74 437.176 114.876 437.227 115.011C437.325 114.736 437.44 114.47 437.57 114.213L440.867 108.2C440.928 108.083 440.993 108.013 441.063 107.99C441.138 107.962 441.241 107.948 441.371 107.948H442.477ZM446.862 118H445.364V107.948H446.862V118ZM457.975 107.948V118H457.219C457.102 118 457.004 117.979 456.925 117.937C456.85 117.895 456.773 117.827 456.694 117.734L451.017 110.391C451.026 110.517 451.033 110.641 451.038 110.762C451.047 110.883 451.052 110.998 451.052 111.105V118H449.743V107.948H450.513C450.643 107.948 450.741 107.964 450.807 107.997C450.872 108.025 450.944 108.093 451.024 108.2L456.715 115.55C456.701 115.415 456.689 115.284 456.68 115.158C456.675 115.027 456.673 114.906 456.673 114.794V107.948H457.975ZM469.065 113.107V117.027C468.557 117.391 468.015 117.664 467.441 117.846C466.867 118.023 466.242 118.112 465.565 118.112C464.753 118.112 464.018 117.986 463.36 117.734C462.707 117.482 462.149 117.13 461.687 116.677C461.225 116.224 460.868 115.683 460.616 115.053C460.369 114.423 460.245 113.73 460.245 112.974C460.245 112.213 460.364 111.518 460.602 110.888C460.845 110.253 461.19 109.712 461.638 109.264C462.086 108.811 462.628 108.461 463.262 108.214C463.902 107.962 464.618 107.836 465.411 107.836C465.813 107.836 466.184 107.866 466.524 107.927C466.87 107.988 467.189 108.074 467.483 108.186C467.777 108.298 468.048 108.433 468.295 108.592C468.547 108.746 468.781 108.921 468.995 109.117L468.568 109.789C468.503 109.896 468.417 109.964 468.309 109.992C468.202 110.02 468.085 109.994 467.959 109.915C467.838 109.845 467.703 109.763 467.553 109.67C467.409 109.577 467.234 109.49 467.028 109.411C466.828 109.332 466.592 109.264 466.321 109.208C466.051 109.152 465.731 109.124 465.362 109.124C464.812 109.124 464.315 109.215 463.871 109.397C463.428 109.574 463.05 109.831 462.737 110.167C462.425 110.503 462.184 110.909 462.016 111.385C461.848 111.856 461.764 112.386 461.764 112.974C461.764 113.59 461.853 114.143 462.03 114.633C462.208 115.118 462.457 115.531 462.779 115.872C463.106 116.208 463.5 116.465 463.962 116.642C464.429 116.819 464.949 116.908 465.523 116.908C465.747 116.908 465.955 116.896 466.146 116.873C466.342 116.845 466.529 116.808 466.706 116.761C466.884 116.714 467.054 116.656 467.217 116.586C467.385 116.516 467.551 116.439 467.714 116.355V114.248H466.23C466.137 114.248 466.06 114.22 465.999 114.164C465.943 114.108 465.915 114.038 465.915 113.954V113.107H469.065Z" fill="#292253"/>
<line x1="479.5" y1="129" x2="479.5" y2="97" stroke="#64669B"/>
<rect width="87" height="32" transform="translate(480 97)" fill="#E8E9F0"/>
<path d="M498.26 115.844C498.344 115.844 498.416 115.877 498.477 115.942L499.065 116.586C498.654 117.071 498.153 117.447 497.56 117.713C496.972 117.979 496.263 118.112 495.432 118.112C494.704 118.112 494.044 117.986 493.451 117.734C492.863 117.482 492.359 117.13 491.939 116.677C491.524 116.224 491.202 115.683 490.973 115.053C490.744 114.423 490.63 113.73 490.63 112.974C490.63 112.218 490.749 111.525 490.987 110.895C491.23 110.265 491.568 109.724 492.002 109.271C492.436 108.818 492.954 108.466 493.556 108.214C494.163 107.962 494.832 107.836 495.565 107.836C496.279 107.836 496.914 107.953 497.469 108.186C498.024 108.419 498.507 108.73 498.918 109.117L498.428 109.81C498.395 109.861 498.353 109.903 498.302 109.936C498.255 109.969 498.192 109.985 498.113 109.985C498.024 109.985 497.919 109.941 497.798 109.852C497.681 109.763 497.525 109.665 497.329 109.558C497.138 109.446 496.9 109.346 496.615 109.257C496.33 109.168 495.976 109.124 495.551 109.124C495.052 109.124 494.594 109.213 494.179 109.39C493.764 109.563 493.404 109.815 493.101 110.146C492.802 110.473 492.569 110.876 492.401 111.357C492.238 111.833 492.156 112.372 492.156 112.974C492.156 113.585 492.242 114.129 492.415 114.605C492.588 115.081 492.826 115.485 493.129 115.816C493.432 116.147 493.789 116.399 494.2 116.572C494.611 116.745 495.054 116.831 495.53 116.831C495.819 116.831 496.078 116.815 496.307 116.782C496.54 116.745 496.753 116.691 496.944 116.621C497.14 116.551 497.324 116.462 497.497 116.355C497.67 116.243 497.84 116.11 498.008 115.956C498.045 115.923 498.085 115.898 498.127 115.879C498.169 115.856 498.213 115.844 498.26 115.844ZM504.883 116.803C505.285 116.803 505.644 116.735 505.961 116.6C506.279 116.465 506.547 116.276 506.766 116.033C506.986 115.786 507.154 115.494 507.27 115.158C507.387 114.817 507.445 114.442 507.445 114.031V107.948H508.929V114.031C508.929 114.619 508.836 115.163 508.649 115.662C508.463 116.161 508.194 116.593 507.844 116.957C507.494 117.321 507.07 117.606 506.57 117.811C506.071 118.016 505.509 118.119 504.883 118.119C504.258 118.119 503.696 118.016 503.196 117.811C502.697 117.606 502.272 117.321 501.922 116.957C501.572 116.593 501.304 116.161 501.117 115.662C500.931 115.163 500.837 114.619 500.837 114.031V107.948H502.328V114.024C502.328 114.435 502.384 114.81 502.496 115.151C502.613 115.492 502.781 115.786 503 116.033C503.22 116.276 503.488 116.465 503.805 116.6C504.123 116.735 504.482 116.803 504.883 116.803ZM514.534 112.792C514.917 112.792 515.253 112.745 515.542 112.652C515.836 112.559 516.081 112.428 516.277 112.26C516.473 112.087 516.62 111.884 516.718 111.651C516.816 111.413 516.865 111.152 516.865 110.867C516.865 110.288 516.674 109.852 516.291 109.558C515.913 109.264 515.344 109.117 514.583 109.117H513.176V112.792H514.534ZM519.224 118H517.894C517.628 118 517.435 117.895 517.313 117.685L514.828 114.199C514.749 114.082 514.663 114.001 514.569 113.954C514.476 113.903 514.336 113.877 514.149 113.877H513.176V118H511.685V107.948H514.583C515.232 107.948 515.79 108.016 516.256 108.151C516.728 108.282 517.115 108.471 517.418 108.718C517.726 108.961 517.953 109.255 518.097 109.6C518.247 109.945 518.321 110.333 518.321 110.762C518.321 111.112 518.268 111.441 518.16 111.749C518.053 112.057 517.894 112.335 517.684 112.582C517.479 112.825 517.227 113.035 516.928 113.212C516.63 113.389 516.291 113.525 515.913 113.618C516.1 113.73 516.261 113.886 516.396 114.087L519.224 118ZM523.767 112.792C524.149 112.792 524.485 112.745 524.775 112.652C525.069 112.559 525.314 112.428 525.51 112.26C525.706 112.087 525.853 111.884 525.951 111.651C526.049 111.413 526.098 111.152 526.098 110.867C526.098 110.288 525.906 109.852 525.524 109.558C525.146 109.264 524.576 109.117 523.816 109.117H522.409V112.792H523.767ZM528.457 118H527.127C526.861 118 526.667 117.895 526.546 117.685L524.061 114.199C523.981 114.082 523.895 114.001 523.802 113.954C523.708 113.903 523.568 113.877 523.382 113.877H522.409V118H520.918V107.948H523.816C524.464 107.948 525.022 108.016 525.489 108.151C525.96 108.282 526.347 108.471 526.651 108.718C526.959 108.961 527.185 109.255 527.33 109.6C527.479 109.945 527.554 110.333 527.554 110.762C527.554 111.112 527.5 111.441 527.393 111.749C527.285 112.057 527.127 112.335 526.917 112.582C526.711 112.825 526.459 113.035 526.161 113.212C525.862 113.389 525.524 113.525 525.146 113.618C525.332 113.73 525.493 113.886 525.629 114.087L528.457 118ZM536.387 116.789L536.38 118H530.15V107.948H536.38V109.159H531.648V112.344H535.456V113.513H531.648V116.789H536.387ZM546.862 107.948V118H546.106C545.989 118 545.891 117.979 545.812 117.937C545.737 117.895 545.66 117.827 545.581 117.734L539.904 110.391C539.913 110.517 539.92 110.641 539.925 110.762C539.934 110.883 539.939 110.998 539.939 111.105V118H538.63V107.948H539.4C539.53 107.948 539.628 107.964 539.694 107.997C539.759 108.025 539.831 108.093 539.911 108.2L545.602 115.55C545.588 115.415 545.576 115.284 545.567 115.158C545.562 115.027 545.56 114.906 545.56 114.794V107.948H546.862ZM556.601 109.194H553.409V118H551.925V109.194H548.719V107.948H556.601V109.194Z" fill="#292253"/>
<line x1="566.5" y1="129" x2="566.5" y2="97" stroke="#64669B"/>
<rect width="99" height="32" transform="translate(567 97)" fill="#E8E9F0"/>
<path d="M587.605 112.974C587.605 113.725 587.484 114.416 587.241 115.046C587.003 115.671 586.665 116.213 586.226 116.67C585.787 117.123 585.262 117.475 584.651 117.727C584.04 117.979 583.361 118.105 582.614 118.105C581.872 118.105 581.193 117.979 580.577 117.727C579.966 117.475 579.441 117.123 579.002 116.67C578.568 116.213 578.23 115.671 577.987 115.046C577.744 114.416 577.623 113.725 577.623 112.974C577.623 112.227 577.744 111.539 577.987 110.909C578.23 110.279 578.568 109.738 579.002 109.285C579.441 108.828 579.966 108.473 580.577 108.221C581.193 107.964 581.872 107.836 582.614 107.836C583.361 107.836 584.04 107.964 584.651 108.221C585.262 108.473 585.787 108.828 586.226 109.285C586.665 109.738 587.003 110.279 587.241 110.909C587.484 111.539 587.605 112.227 587.605 112.974ZM586.079 112.974C586.079 112.377 585.997 111.84 585.834 111.364C585.671 110.888 585.437 110.484 585.134 110.153C584.835 109.822 584.471 109.567 584.042 109.39C583.617 109.213 583.141 109.124 582.614 109.124C582.087 109.124 581.608 109.213 581.179 109.39C580.754 109.567 580.39 109.822 580.087 110.153C579.784 110.484 579.55 110.888 579.387 111.364C579.224 111.84 579.142 112.377 579.142 112.974C579.142 113.576 579.224 114.115 579.387 114.591C579.55 115.062 579.784 115.464 580.087 115.795C580.39 116.126 580.754 116.381 581.179 116.558C581.608 116.731 582.087 116.817 582.614 116.817C583.141 116.817 583.617 116.731 584.042 116.558C584.471 116.381 584.835 116.126 585.134 115.795C585.437 115.464 585.671 115.062 585.834 114.591C585.997 114.115 586.079 113.576 586.079 112.974ZM593.797 116.803C594.199 116.803 594.558 116.735 594.875 116.6C595.193 116.465 595.461 116.276 595.68 116.033C595.9 115.786 596.068 115.494 596.184 115.158C596.301 114.817 596.359 114.442 596.359 114.031V107.948H597.843V114.031C597.843 114.619 597.75 115.163 597.563 115.662C597.377 116.161 597.108 116.593 596.758 116.957C596.408 117.321 595.984 117.606 595.484 117.811C594.985 118.016 594.423 118.119 593.797 118.119C593.172 118.119 592.61 118.016 592.11 117.811C591.611 117.606 591.186 117.321 590.836 116.957C590.486 116.593 590.218 116.161 590.031 115.662C589.845 115.163 589.751 114.619 589.751 114.031V107.948H591.242V114.024C591.242 114.435 591.298 114.81 591.41 115.151C591.527 115.492 591.695 115.786 591.914 116.033C592.134 116.276 592.402 116.465 592.719 116.6C593.037 116.735 593.396 116.803 593.797 116.803ZM607.453 109.194H604.261V118H602.777V109.194H599.571V107.948H607.453V109.194ZM617.079 113.107V117.027C616.57 117.391 616.029 117.664 615.455 117.846C614.881 118.023 614.255 118.112 613.579 118.112C612.767 118.112 612.032 117.986 611.374 117.734C610.72 117.482 610.163 117.13 609.701 116.677C609.239 116.224 608.882 115.683 608.63 115.053C608.382 114.423 608.259 113.73 608.259 112.974C608.259 112.213 608.378 111.518 608.616 110.888C608.858 110.253 609.204 109.712 609.652 109.264C610.1 108.811 610.641 108.461 611.276 108.214C611.915 107.962 612.631 107.836 613.425 107.836C613.826 107.836 614.197 107.866 614.538 107.927C614.883 107.988 615.203 108.074 615.497 108.186C615.791 108.298 616.061 108.433 616.309 108.592C616.561 108.746 616.794 108.921 617.009 109.117L616.582 109.789C616.516 109.896 616.43 109.964 616.323 109.992C616.215 110.02 616.099 109.994 615.973 109.915C615.851 109.845 615.716 109.763 615.567 109.67C615.422 109.577 615.247 109.49 615.042 109.411C614.841 109.332 614.605 109.264 614.335 109.208C614.064 109.152 613.744 109.124 613.376 109.124C612.825 109.124 612.328 109.215 611.885 109.397C611.441 109.574 611.063 109.831 610.751 110.167C610.438 110.503 610.198 110.909 610.03 111.385C609.862 111.856 609.778 112.386 609.778 112.974C609.778 113.59 609.866 114.143 610.044 114.633C610.221 115.118 610.471 115.531 610.793 115.872C611.119 116.208 611.514 116.465 611.976 116.642C612.442 116.819 612.963 116.908 613.537 116.908C613.761 116.908 613.968 116.896 614.16 116.873C614.356 116.845 614.542 116.808 614.72 116.761C614.897 116.714 615.067 116.656 615.231 116.586C615.399 116.516 615.564 116.439 615.728 116.355V114.248H614.244C614.15 114.248 614.073 114.22 614.013 114.164C613.957 114.108 613.929 114.038 613.929 113.954V113.107H617.079ZM628.853 112.974C628.853 113.725 628.732 114.416 628.489 115.046C628.251 115.671 627.913 116.213 627.474 116.67C627.036 117.123 626.511 117.475 625.899 117.727C625.288 117.979 624.609 118.105 623.862 118.105C623.12 118.105 622.441 117.979 621.825 117.727C621.214 117.475 620.689 117.123 620.25 116.67C619.816 116.213 619.478 115.671 619.235 115.046C618.993 114.416 618.871 113.725 618.871 112.974C618.871 112.227 618.993 111.539 619.235 110.909C619.478 110.279 619.816 109.738 620.25 109.285C620.689 108.828 621.214 108.473 621.825 108.221C622.441 107.964 623.12 107.836 623.862 107.836C624.609 107.836 625.288 107.964 625.899 108.221C626.511 108.473 627.036 108.828 627.474 109.285C627.913 109.738 628.251 110.279 628.489 110.909C628.732 111.539 628.853 112.227 628.853 112.974ZM627.327 112.974C627.327 112.377 627.246 111.84 627.082 111.364C626.919 110.888 626.686 110.484 626.382 110.153C626.084 109.822 625.72 109.567 625.29 109.39C624.866 109.213 624.39 109.124 623.862 109.124C623.335 109.124 622.857 109.213 622.427 109.39C622.003 109.567 621.639 109.822 621.335 110.153C621.032 110.484 620.799 110.888 620.635 111.364C620.472 111.84 620.39 112.377 620.39 112.974C620.39 113.576 620.472 114.115 620.635 114.591C620.799 115.062 621.032 115.464 621.335 115.795C621.639 116.126 622.003 116.381 622.427 116.558C622.857 116.731 623.335 116.817 623.862 116.817C624.39 116.817 624.866 116.731 625.29 116.558C625.72 116.381 626.084 116.126 626.382 115.795C626.686 115.464 626.919 115.062 627.082 114.591C627.246 114.115 627.327 113.576 627.327 112.974ZM632.624 118H631.126V107.948H632.624V118ZM643.736 107.948V118H642.98C642.864 118 642.766 117.979 642.686 117.937C642.612 117.895 642.535 117.827 642.455 117.734L636.778 110.391C636.788 110.517 636.795 110.641 636.799 110.762C636.809 110.883 636.813 110.998 636.813 111.105V118H635.504V107.948H636.274C636.405 107.948 636.503 107.964 636.568 107.997C636.634 108.025 636.706 108.093 636.785 108.2L642.476 115.55C642.462 115.415 642.451 115.284 642.441 115.158C642.437 115.027 642.434 114.906 642.434 114.794V107.948H643.736ZM654.827 113.107V117.027C654.318 117.391 653.777 117.664 653.203 117.846C652.629 118.023 652.004 118.112 651.327 118.112C650.515 118.112 649.78 117.986 649.122 117.734C648.469 117.482 647.911 117.13 647.449 116.677C646.987 116.224 646.63 115.683 646.378 115.053C646.131 114.423 646.007 113.73 646.007 112.974C646.007 112.213 646.126 111.518 646.364 110.888C646.607 110.253 646.952 109.712 647.4 109.264C647.848 108.811 648.389 108.461 649.024 108.214C649.663 107.962 650.38 107.836 651.173 107.836C651.574 107.836 651.945 107.866 652.286 107.927C652.631 107.988 652.951 108.074 653.245 108.186C653.539 108.298 653.81 108.433 654.057 108.592C654.309 108.746 654.542 108.921 654.757 109.117L654.33 109.789C654.265 109.896 654.178 109.964 654.071 109.992C653.964 110.02 653.847 109.994 653.721 109.915C653.6 109.845 653.464 109.763 653.315 109.67C653.17 109.577 652.995 109.49 652.79 109.411C652.589 109.332 652.354 109.264 652.083 109.208C651.812 109.152 651.493 109.124 651.124 109.124C650.573 109.124 650.076 109.215 649.633 109.397C649.19 109.574 648.812 109.831 648.499 110.167C648.186 110.503 647.946 110.909 647.778 111.385C647.61 111.856 647.526 112.386 647.526 112.974C647.526 113.59 647.615 114.143 647.792 114.633C647.969 115.118 648.219 115.531 648.541 115.872C648.868 116.208 649.262 116.465 649.724 116.642C650.191 116.819 650.711 116.908 651.285 116.908C651.509 116.908 651.717 116.896 651.908 116.873C652.104 116.845 652.291 116.808 652.468 116.761C652.645 116.714 652.816 116.656 652.979 116.586C653.147 116.516 653.313 116.439 653.476 116.355V114.248H651.992C651.899 114.248 651.822 114.22 651.761 114.164C651.705 114.108 651.677 114.038 651.677 113.954V113.107H654.827Z" fill="#292253"/>
</g>
</g>
</g>
<defs>
<filter id="filter0_ddd_1_577" x="-5" y="-4" width="738" height="61" filterUnits="userSpaceOnUse" color-interpolation-filters="sRGB">
<feFlood flood-opacity="0" result="BackgroundImageFix"/>
<feColorMatrix in="SourceAlpha" type="matrix" values="0 0 0 0 0 0 0 0 0 0 0 0 0 0 0 0 0 0 127 0" result="hardAlpha"/>
<feOffset dy="1"/>
<feGaussianBlur stdDeviation="2.5"/>
<feColorMatrix type="matrix" values="0 0 0 0 0 0 0 0 0 0 0 0 0 0 0 0 0 0 0.12 0"/>
<feBlend mode="normal" in2="BackgroundImageFix" result="effect1_dropShadow_1_577"/>
<feColorMatrix in="SourceAlpha" type="matrix" values="0 0 0 0 0 0 0 0 0 0 0 0 0 0 0 0 0 0 127 0" result="hardAlpha"/>
<feOffset dy="2"/>
<feGaussianBlur stdDeviation="1"/>
<feColorMatrix type="matrix" values="0 0 0 0 0 0 0 0 0 0 0 0 0 0 0 0 0 0 0.14 0"/>
<feBlend mode="normal" in2="effect1_dropShadow_1_577" result="effect2_dropShadow_1_577"/>
<feColorMatrix in="SourceAlpha" type="matrix" values="0 0 0 0 0 0 0 0 0 0 0 0 0 0 0 0 0 0 127 0" result="hardAlpha"/>
<feMorphology radius="2" operator="erode" in="SourceAlpha" result="effect3_dropShadow_1_577"/>
<feOffset dy="3"/>
<feGaussianBlur stdDeviation="0.5"/>
<feColorMatrix type="matrix" values="0 0 0 0 0 0 0 0 0 0 0 0 0 0 0 0 0 0 0.2 0"/>
<feBlend mode="normal" in2="effect2_dropShadow_1_577" result="effect3_dropShadow_1_577"/>
<feBlend mode="normal" in="SourceGraphic" in2="effect3_dropShadow_1_577" result="shape"/>
</filter>
<filter id="filter1_ddd_1_577" x="379" y="93" width="292" height="42" filterUnits="userSpaceOnUse" color-interpolation-filters="sRGB">
<feFlood flood-opacity="0" result="BackgroundImageFix"/>
<feColorMatrix in="SourceAlpha" type="matrix" values="0 0 0 0 0 0 0 0 0 0 0 0 0 0 0 0 0 0 127 0" result="hardAlpha"/>
<feOffset dy="1"/>
<feGaussianBlur stdDeviation="2.5"/>
<feColorMatrix type="matrix" values="0 0 0 0 0 0 0 0 0 0 0 0 0 0 0 0 0 0 0.12 0"/>
<feBlend mode="normal" in2="BackgroundImageFix" result="effect1_dropShadow_1_577"/>
<feColorMatrix in="SourceAlpha" type="matrix" values="0 0 0 0 0 0 0 0 0 0 0 0 0 0 0 0 0 0 127 0" result="hardAlpha"/>
<feOffset dy="2"/>
<feGaussianBlur stdDeviation="1"/>
<feColorMatrix type="matrix" values="0 0 0 0 0 0 0 0 0 0 0 0 0 0 0 0 0 0 0.14 0"/>
<feBlend mode="normal" in2="effect1_dropShadow_1_577" result="effect2_dropShadow_1_577"/>
<feColorMatrix in="SourceAlpha" type="matrix" values="0 0 0 0 0 0 0 0 0 0 0 0 0 0 0 0 0 0 127 0" result="hardAlpha"/>
<feMorphology radius="2" operator="erode" in="SourceAlpha" result="effect3_dropShadow_1_577"/>
<feOffset dy="3"/>
<feGaussianBlur stdDeviation="0.5"/>
<feColorMatrix type="matrix" values="0 0 0 0 0 0 0 0 0 0 0 0 0 0 0 0 0 0 0.2 0"/>
<feBlend mode="normal" in2="effect2_dropShadow_1_577" result="effect3_dropShadow_1_577"/>
<feBlend mode="normal" in="SourceGraphic" in2="effect3_dropShadow_1_577" result="shape"/>
</filter>
<clipPath id="clip0_1_577">
<rect width="728" height="1024" rx="4" fill="white"/>
</clipPath>
<clipPath id="clip1_1_577">
<rect width="728" height="51" fill="white"/>
</clipPath>
<clipPath id="clip2_1_577">
<rect x="384" y="97" width="282" height="32" rx="4" fill="white"/>
</clipPath>
</defs>
</svg>
