<svg width="728" height="1024" viewBox="0 0 728 1024" fill="none" xmlns="http://www.w3.org/2000/svg">
<g clip-path="url(#clip0_1_530)">
<rect width="728" height="1024" rx="4" fill="white"/>
<rect x="-444" y="59" width="901" height="952" rx="4" fill="#292253" fill-opacity="0.26"/>
<path d="M673 67C673 64.7909 674.791 63 677 63H711C713.209 63 715 64.7909 715 67V1004C715 1006.21 713.209 1008 711 1008H677C674.791 1008 673 1006.21 673 1004V67Z" fill="#E8E9F0"/>
<path d="M673 66.9706C673 64.7777 673.308 63 673.689 63H714.311C714.692 63 715 64.7777 715 66.9706V1004.03C715 1006.22 714.692 1008 714.311 1008H673.689C673.308 1008 673 1006.22 673 1004.03V66.9706Z" fill="#E8E9F0"/>
<path d="M716 57.5H480C476.962 57.5 474.5 59.9624 474.5 63V1007C474.5 1010.04 476.962 1012.5 480 1012.5H716C719.038 1012.5 721.5 1010.04 721.5 1007V63C721.5 59.9624 719.038 57.5 716 57.5Z" stroke="#9747FF" stroke-width="3"/>
<path d="M483 103C483 100.791 484.791 99 487 99H664C666.209 99 668 100.791 668 103V366C668 368.209 666.209 370 664 370H487C484.791 370 483 368.209 483 366V103Z" fill="#E8E9F0"/>
<path d="M483 100.139C483 99.5098 484.358 99 486.033 99H664.967C666.642 99 668 99.5098 668 100.139V368.861C668 369.49 666.642 370 664.967 370H486.033C484.358 370 483 369.49 483 368.861V100.139Z" fill="#E8E9F0"/>
<g clip-path="url(#clip1_1_530)" filter="url(#filter0_ddd_1_530)">
<rect width="728" height="51" fill="#292253"/>
<rect x="-712" width="1998" height="5" fill="#FBBF52"/>
<rect x="-77" y="13" width="159" height="32" rx="4" fill="white"/>
<circle cx="694" cy="29" r="16" fill="white"/>
<circle cx="107" cy="29" r="16" fill="white"/>
</g>
<circle cx="694" cy="83" r="16" fill="#292253" fill-opacity="0.26"/>
<circle cx="694" cy="153" r="16" fill="#292253" fill-opacity="0.26"/>
<path d="M519.027 79.61C519.587 79.61 520.081 79.5433 520.507 79.41C520.941 79.27 521.301 79.0767 521.587 78.83C521.881 78.5767 522.101 78.2767 522.247 77.93C522.394 77.5833 522.467 77.2 522.467 76.78C522.467 75.9267 522.187 75.2833 521.627 74.85C521.067 74.4167 520.227 74.2 519.107 74.2H516.987V79.61H519.027ZM525.647 87H523.927C523.574 87 523.314 86.8633 523.147 86.59L519.427 81.47C519.314 81.31 519.191 81.1967 519.057 81.13C518.931 81.0567 518.731 81.02 518.457 81.02H516.987V87H515.057V72.67H519.107C520.014 72.67 520.797 72.7633 521.457 72.95C522.117 73.13 522.661 73.3933 523.087 73.74C523.521 74.0867 523.841 74.5067 524.047 75C524.254 75.4867 524.357 76.0333 524.357 76.64C524.357 77.1467 524.277 77.62 524.117 78.06C523.957 78.5 523.724 78.8967 523.417 79.25C523.117 79.5967 522.747 79.8933 522.307 80.14C521.874 80.3867 521.381 80.5733 520.827 80.7C521.074 80.84 521.287 81.0433 521.467 81.31L525.647 87ZM533.462 80.83C533.462 80.4167 533.402 80.04 533.282 79.7C533.169 79.3533 532.999 79.0567 532.772 78.81C532.552 78.5567 532.282 78.3633 531.962 78.23C531.642 78.09 531.279 78.02 530.872 78.02C530.019 78.02 529.342 78.27 528.842 78.77C528.349 79.2633 528.042 79.95 527.922 80.83H533.462ZM534.902 85.58C534.682 85.8467 534.419 86.08 534.112 86.28C533.805 86.4733 533.475 86.6333 533.122 86.76C532.775 86.8867 532.415 86.98 532.042 87.04C531.669 87.1067 531.299 87.14 530.932 87.14C530.232 87.14 529.585 87.0233 528.992 86.79C528.405 86.55 527.895 86.2033 527.462 85.75C527.035 85.29 526.702 84.7233 526.462 84.05C526.222 83.3767 526.102 82.6033 526.102 81.73C526.102 81.0233 526.209 80.3633 526.422 79.75C526.642 79.1367 526.955 78.6067 527.362 78.16C527.769 77.7067 528.265 77.3533 528.852 77.1C529.439 76.84 530.099 76.71 530.832 76.71C531.439 76.71 531.999 76.8133 532.512 77.02C533.032 77.22 533.479 77.5133 533.852 77.9C534.232 78.28 534.529 78.7533 534.742 79.32C534.955 79.88 535.062 80.52 535.062 81.24C535.062 81.52 535.032 81.7067 534.972 81.8C534.912 81.8933 534.799 81.94 534.632 81.94H527.862C527.882 82.58 527.969 83.1367 528.122 83.61C528.282 84.0833 528.502 84.48 528.782 84.8C529.062 85.1133 529.395 85.35 529.782 85.51C530.169 85.6633 530.602 85.74 531.082 85.74C531.529 85.74 531.912 85.69 532.232 85.59C532.559 85.4833 532.839 85.37 533.072 85.25C533.305 85.13 533.499 85.02 533.652 84.92C533.812 84.8133 533.949 84.76 534.062 84.76C534.209 84.76 534.322 84.8167 534.402 84.93L534.902 85.58ZM539.188 84.56C539.515 85 539.872 85.31 540.258 85.49C540.645 85.67 541.078 85.76 541.558 85.76C542.505 85.76 543.232 85.4233 543.738 84.75C544.245 84.0767 544.498 83.1167 544.498 81.87C544.498 81.21 544.438 80.6433 544.318 80.17C544.205 79.6967 544.038 79.31 543.818 79.01C543.598 78.7033 543.328 78.48 543.008 78.34C542.688 78.2 542.325 78.13 541.918 78.13C541.338 78.13 540.828 78.2633 540.388 78.53C539.955 78.7967 539.555 79.1733 539.188 79.66V84.56ZM539.098 78.44C539.525 77.9133 540.018 77.49 540.578 77.17C541.138 76.85 541.778 76.69 542.498 76.69C543.085 76.69 543.615 76.8033 544.088 77.03C544.562 77.25 544.965 77.58 545.298 78.02C545.632 78.4533 545.888 78.9933 546.068 79.64C546.248 80.2867 546.338 81.03 546.338 81.87C546.338 82.6167 546.238 83.3133 546.038 83.96C545.838 84.6 545.548 85.1567 545.168 85.63C544.795 86.0967 544.335 86.4667 543.788 86.74C543.248 87.0067 542.638 87.14 541.958 87.14C541.338 87.14 540.805 87.0367 540.358 86.83C539.918 86.6167 539.528 86.3233 539.188 85.95V90.43H537.398V76.87H538.468C538.722 76.87 538.878 76.9933 538.938 77.24L539.098 78.44ZM550.449 78.9C550.769 78.2067 551.163 77.6667 551.629 77.28C552.096 76.8867 552.666 76.69 553.339 76.69C553.553 76.69 553.756 76.7133 553.949 76.76C554.149 76.8067 554.326 76.88 554.479 76.98L554.349 78.31C554.309 78.4767 554.209 78.56 554.049 78.56C553.956 78.56 553.819 78.54 553.639 78.5C553.459 78.46 553.256 78.44 553.029 78.44C552.709 78.44 552.423 78.4867 552.169 78.58C551.923 78.6733 551.699 78.8133 551.499 79C551.306 79.18 551.129 79.4067 550.969 79.68C550.816 79.9467 550.676 80.2533 550.549 80.6V87H548.759V76.87H549.779C549.973 76.87 550.106 76.9067 550.179 76.98C550.253 77.0533 550.303 77.18 550.329 77.36L550.449 78.9ZM562.564 80.83C562.564 80.4167 562.504 80.04 562.384 79.7C562.271 79.3533 562.101 79.0567 561.874 78.81C561.654 78.5567 561.384 78.3633 561.064 78.23C560.744 78.09 560.381 78.02 559.974 78.02C559.121 78.02 558.444 78.27 557.944 78.77C557.451 79.2633 557.144 79.95 557.024 80.83H562.564ZM564.004 85.58C563.784 85.8467 563.521 86.08 563.214 86.28C562.908 86.4733 562.578 86.6333 562.224 86.76C561.878 86.8867 561.518 86.98 561.144 87.04C560.771 87.1067 560.401 87.14 560.034 87.14C559.334 87.14 558.688 87.0233 558.094 86.79C557.508 86.55 556.998 86.2033 556.564 85.75C556.138 85.29 555.804 84.7233 555.564 84.05C555.324 83.3767 555.204 82.6033 555.204 81.73C555.204 81.0233 555.311 80.3633 555.524 79.75C555.744 79.1367 556.058 78.6067 556.464 78.16C556.871 77.7067 557.368 77.3533 557.954 77.1C558.541 76.84 559.201 76.71 559.934 76.71C560.541 76.71 561.101 76.8133 561.614 77.02C562.134 77.22 562.581 77.5133 562.954 77.9C563.334 78.28 563.631 78.7533 563.844 79.32C564.058 79.88 564.164 80.52 564.164 81.24C564.164 81.52 564.134 81.7067 564.074 81.8C564.014 81.8933 563.901 81.94 563.734 81.94H556.964C556.984 82.58 557.071 83.1367 557.224 83.61C557.384 84.0833 557.604 84.48 557.884 84.8C558.164 85.1133 558.498 85.35 558.884 85.51C559.271 85.6633 559.704 85.74 560.184 85.74C560.631 85.74 561.014 85.69 561.334 85.59C561.661 85.4833 561.941 85.37 562.174 85.25C562.408 85.13 562.601 85.02 562.754 84.92C562.914 84.8133 563.051 84.76 563.164 84.76C563.311 84.76 563.424 84.8167 563.504 84.93L564.004 85.58ZM572.401 78.54C572.321 78.6867 572.197 78.76 572.031 78.76C571.931 78.76 571.817 78.7233 571.691 78.65C571.564 78.5767 571.407 78.4967 571.221 78.41C571.041 78.3167 570.824 78.2333 570.571 78.16C570.317 78.08 570.017 78.04 569.671 78.04C569.371 78.04 569.101 78.08 568.861 78.16C568.621 78.2333 568.414 78.3367 568.241 78.47C568.074 78.6033 567.944 78.76 567.851 78.94C567.764 79.1133 567.721 79.3033 567.721 79.51C567.721 79.77 567.794 79.9867 567.941 80.16C568.094 80.3333 568.294 80.4833 568.541 80.61C568.787 80.7367 569.067 80.85 569.381 80.95C569.694 81.0433 570.014 81.1467 570.341 81.26C570.674 81.3667 570.997 81.4867 571.311 81.62C571.624 81.7533 571.904 81.92 572.151 82.12C572.397 82.32 572.594 82.5667 572.741 82.86C572.894 83.1467 572.971 83.4933 572.971 83.9C572.971 84.3667 572.887 84.8 572.721 85.2C572.554 85.5933 572.307 85.9367 571.981 86.23C571.654 86.5167 571.254 86.7433 570.781 86.91C570.307 87.0767 569.761 87.16 569.141 87.16C568.434 87.16 567.794 87.0467 567.221 86.82C566.647 86.5867 566.161 86.29 565.761 85.93L566.181 85.25C566.234 85.1633 566.297 85.0967 566.371 85.05C566.444 85.0033 566.537 84.98 566.651 84.98C566.771 84.98 566.897 85.0267 567.031 85.12C567.164 85.2133 567.324 85.3167 567.511 85.43C567.704 85.5433 567.937 85.6467 568.211 85.74C568.484 85.8333 568.824 85.88 569.231 85.88C569.577 85.88 569.881 85.8367 570.141 85.75C570.401 85.6567 570.617 85.5333 570.791 85.38C570.964 85.2267 571.091 85.05 571.171 84.85C571.257 84.65 571.301 84.4367 571.301 84.21C571.301 83.93 571.224 83.7 571.071 83.52C570.924 83.3333 570.727 83.1767 570.481 83.05C570.234 82.9167 569.951 82.8033 569.631 82.71C569.317 82.61 568.994 82.5067 568.661 82.4C568.334 82.2933 568.011 82.1733 567.691 82.04C567.377 81.9 567.097 81.7267 566.851 81.52C566.604 81.3133 566.404 81.06 566.251 80.76C566.104 80.4533 566.031 80.0833 566.031 79.65C566.031 79.2633 566.111 78.8933 566.271 78.54C566.431 78.18 566.664 77.8667 566.971 77.6C567.277 77.3267 567.654 77.11 568.101 76.95C568.547 76.79 569.057 76.71 569.631 76.71C570.297 76.71 570.894 76.8167 571.421 77.03C571.954 77.2367 572.414 77.5233 572.801 77.89L572.401 78.54ZM582.083 80.83C582.083 80.4167 582.023 80.04 581.903 79.7C581.79 79.3533 581.62 79.0567 581.393 78.81C581.173 78.5567 580.903 78.3633 580.583 78.23C580.263 78.09 579.9 78.02 579.493 78.02C578.64 78.02 577.963 78.27 577.463 78.77C576.97 79.2633 576.663 79.95 576.543 80.83H582.083ZM583.523 85.58C583.303 85.8467 583.04 86.08 582.733 86.28C582.426 86.4733 582.096 86.6333 581.743 86.76C581.396 86.8867 581.036 86.98 580.663 87.04C580.29 87.1067 579.92 87.14 579.553 87.14C578.853 87.14 578.206 87.0233 577.613 86.79C577.026 86.55 576.516 86.2033 576.083 85.75C575.656 85.29 575.323 84.7233 575.083 84.05C574.843 83.3767 574.723 82.6033 574.723 81.73C574.723 81.0233 574.83 80.3633 575.043 79.75C575.263 79.1367 575.576 78.6067 575.983 78.16C576.39 77.7067 576.886 77.3533 577.473 77.1C578.06 76.84 578.72 76.71 579.453 76.71C580.06 76.71 580.62 76.8133 581.133 77.02C581.653 77.22 582.1 77.5133 582.473 77.9C582.853 78.28 583.15 78.7533 583.363 79.32C583.576 79.88 583.683 80.52 583.683 81.24C583.683 81.52 583.653 81.7067 583.593 81.8C583.533 81.8933 583.42 81.94 583.253 81.94H576.483C576.503 82.58 576.59 83.1367 576.743 83.61C576.903 84.0833 577.123 84.48 577.403 84.8C577.683 85.1133 578.016 85.35 578.403 85.51C578.79 85.6633 579.223 85.74 579.703 85.74C580.15 85.74 580.533 85.69 580.853 85.59C581.18 85.4833 581.46 85.37 581.693 85.25C581.926 85.13 582.12 85.02 582.273 84.92C582.433 84.8133 582.57 84.76 582.683 84.76C582.83 84.76 582.943 84.8167 583.023 84.93L583.523 85.58ZM587.699 78.34C587.919 78.0933 588.153 77.87 588.399 77.67C588.646 77.47 588.906 77.3 589.179 77.16C589.459 77.0133 589.753 76.9033 590.059 76.83C590.373 76.75 590.709 76.71 591.069 76.71C591.623 76.71 592.109 76.8033 592.529 76.99C592.956 77.17 593.309 77.43 593.589 77.77C593.876 78.1033 594.093 78.5067 594.239 78.98C594.386 79.4533 594.459 79.9767 594.459 80.55V87H592.669V80.55C592.669 79.7833 592.493 79.19 592.139 78.77C591.793 78.3433 591.263 78.13 590.549 78.13C590.023 78.13 589.529 78.2567 589.069 78.51C588.616 78.7633 588.196 79.1067 587.809 79.54V87H586.019V76.87H587.089C587.343 76.87 587.499 76.9933 587.559 77.24L587.699 78.34ZM600.295 87.16C599.495 87.16 598.878 86.9367 598.445 86.49C598.018 86.0433 597.805 85.4 597.805 84.56V78.36H596.585C596.478 78.36 596.388 78.33 596.315 78.27C596.242 78.2033 596.205 78.1033 596.205 77.97V77.26L597.865 77.05L598.275 73.92C598.295 73.82 598.338 73.74 598.405 73.68C598.478 73.6133 598.572 73.58 598.685 73.58H599.585V77.07H602.515V78.36H599.585V84.44C599.585 84.8667 599.688 85.1833 599.895 85.39C600.102 85.5967 600.368 85.7 600.695 85.7C600.882 85.7 601.042 85.6767 601.175 85.63C601.315 85.5767 601.435 85.52 601.535 85.46C601.635 85.4 601.718 85.3467 601.785 85.3C601.858 85.2467 601.922 85.22 601.975 85.22C602.068 85.22 602.152 85.2767 602.225 85.39L602.745 86.24C602.438 86.5267 602.068 86.7533 601.635 86.92C601.202 87.08 600.755 87.16 600.295 87.16ZM609.993 82.44C609.173 82.4667 608.473 82.5333 607.893 82.64C607.32 82.74 606.85 82.8733 606.483 83.04C606.123 83.2067 605.86 83.4033 605.693 83.63C605.533 83.8567 605.453 84.11 605.453 84.39C605.453 84.6567 605.496 84.8867 605.583 85.08C605.67 85.2733 605.786 85.4333 605.933 85.56C606.086 85.68 606.263 85.77 606.463 85.83C606.67 85.8833 606.89 85.91 607.123 85.91C607.436 85.91 607.723 85.88 607.983 85.82C608.243 85.7533 608.486 85.66 608.713 85.54C608.946 85.42 609.166 85.2767 609.373 85.11C609.586 84.9433 609.793 84.7533 609.993 84.54V82.44ZM604.243 78.3C604.803 77.76 605.406 77.3567 606.053 77.09C606.7 76.8233 607.416 76.69 608.203 76.69C608.77 76.69 609.273 76.7833 609.713 76.97C610.153 77.1567 610.523 77.4167 610.823 77.75C611.123 78.0833 611.35 78.4867 611.503 78.96C611.656 79.4333 611.733 79.9533 611.733 80.52V87H610.943C610.77 87 610.636 86.9733 610.543 86.92C610.45 86.86 610.376 86.7467 610.323 86.58L610.123 85.62C609.856 85.8667 609.596 86.0867 609.343 86.28C609.09 86.4667 608.823 86.6267 608.543 86.76C608.263 86.8867 607.963 86.9833 607.643 87.05C607.33 87.1233 606.98 87.16 606.593 87.16C606.2 87.16 605.83 87.1067 605.483 87C605.136 86.8867 604.833 86.72 604.573 86.5C604.32 86.28 604.116 86.0033 603.963 85.67C603.816 85.33 603.743 84.93 603.743 84.47C603.743 84.07 603.853 83.6867 604.073 83.32C604.293 82.9467 604.65 82.6167 605.143 82.33C605.636 82.0433 606.28 81.81 607.073 81.63C607.866 81.4433 608.84 81.3367 609.993 81.31V80.52C609.993 79.7333 609.823 79.14 609.483 78.74C609.143 78.3333 608.646 78.13 607.993 78.13C607.553 78.13 607.183 78.1867 606.883 78.3C606.59 78.4067 606.333 78.53 606.113 78.67C605.9 78.8033 605.713 78.9267 605.553 79.04C605.4 79.1467 605.246 79.2 605.093 79.2C604.973 79.2 604.87 79.17 604.783 79.11C604.696 79.0433 604.623 78.9633 604.563 78.87L604.243 78.3ZM617.568 87.16C616.768 87.16 616.151 86.9367 615.718 86.49C615.291 86.0433 615.078 85.4 615.078 84.56V78.36H613.858C613.751 78.36 613.661 78.33 613.588 78.27C613.514 78.2033 613.478 78.1033 613.478 77.97V77.26L615.138 77.05L615.548 73.92C615.568 73.82 615.611 73.74 615.678 73.68C615.751 73.6133 615.844 73.58 615.958 73.58H616.858V77.07H619.788V78.36H616.858V84.44C616.858 84.8667 616.961 85.1833 617.168 85.39C617.374 85.5967 617.641 85.7 617.968 85.7C618.154 85.7 618.314 85.6767 618.448 85.63C618.588 85.5767 618.708 85.52 618.808 85.46C618.908 85.4 618.991 85.3467 619.058 85.3C619.131 85.2467 619.194 85.22 619.248 85.22C619.341 85.22 619.424 85.2767 619.498 85.39L620.018 86.24C619.711 86.5267 619.341 86.7533 618.908 86.92C618.474 87.08 618.028 87.16 617.568 87.16ZM623.656 76.87V87H621.876V76.87H623.656ZM624.036 73.69C624.036 73.8633 623.999 74.0267 623.926 74.18C623.859 74.3267 623.766 74.46 623.646 74.58C623.532 74.6933 623.396 74.7833 623.236 74.85C623.082 74.9167 622.919 74.95 622.746 74.95C622.572 74.95 622.409 74.9167 622.256 74.85C622.109 74.7833 621.979 74.6933 621.866 74.58C621.752 74.46 621.662 74.3267 621.596 74.18C621.529 74.0267 621.496 73.8633 621.496 73.69C621.496 73.5167 621.529 73.3533 621.596 73.2C621.662 73.04 621.752 72.9033 621.866 72.79C621.979 72.67 622.109 72.5767 622.256 72.51C622.409 72.4433 622.572 72.41 622.746 72.41C622.919 72.41 623.082 72.4433 623.236 72.51C623.396 72.5767 623.532 72.67 623.646 72.79C623.766 72.9033 623.859 73.04 623.926 73.2C623.999 73.3533 624.036 73.5167 624.036 73.69ZM631 76.71C631.74 76.71 632.407 76.8333 633 77.08C633.594 77.3267 634.1 77.6767 634.52 78.13C634.94 78.5833 635.26 79.1333 635.48 79.78C635.707 80.42 635.82 81.1367 635.82 81.93C635.82 82.73 635.707 83.45 635.48 84.09C635.26 84.73 634.94 85.2767 634.52 85.73C634.1 86.1833 633.594 86.5333 633 86.78C632.407 87.02 631.74 87.14 631 87.14C630.254 87.14 629.58 87.02 628.98 86.78C628.387 86.5333 627.88 86.1833 627.46 85.73C627.04 85.2767 626.717 84.73 626.49 84.09C626.27 83.45 626.16 82.73 626.16 81.93C626.16 81.1367 626.27 80.42 626.49 79.78C626.717 79.1333 627.04 78.5833 627.46 78.13C627.88 77.6767 628.387 77.3267 628.98 77.08C629.58 76.8333 630.254 76.71 631 76.71ZM631 85.75C632 85.75 632.747 85.4167 633.24 84.75C633.734 84.0767 633.98 83.14 633.98 81.94C633.98 80.7333 633.734 79.7933 633.24 79.12C632.747 78.4467 632 78.11 631 78.11C630.494 78.11 630.05 78.1967 629.67 78.37C629.297 78.5433 628.984 78.7933 628.73 79.12C628.484 79.4467 628.297 79.85 628.17 80.33C628.05 80.8033 627.99 81.34 627.99 81.94C627.99 83.14 628.237 84.0767 628.73 84.75C629.23 85.4167 629.987 85.75 631 85.75ZM639.908 78.34C640.128 78.0933 640.361 77.87 640.608 77.67C640.855 77.47 641.115 77.3 641.388 77.16C641.668 77.0133 641.961 76.9033 642.268 76.83C642.581 76.75 642.918 76.71 643.278 76.71C643.831 76.71 644.318 76.8033 644.738 76.99C645.165 77.17 645.518 77.43 645.798 77.77C646.085 78.1033 646.301 78.5067 646.448 78.98C646.595 79.4533 646.668 79.9767 646.668 80.55V87H644.878V80.55C644.878 79.7833 644.701 79.19 644.348 78.77C644.001 78.3433 643.471 78.13 642.758 78.13C642.231 78.13 641.738 78.2567 641.278 78.51C640.825 78.7633 640.405 79.1067 640.018 79.54V87H638.228V76.87H639.298C639.551 76.87 639.708 76.9933 639.768 77.24L639.908 78.34ZM655.43 78.54C655.35 78.6867 655.227 78.76 655.06 78.76C654.96 78.76 654.847 78.7233 654.72 78.65C654.594 78.5767 654.437 78.4967 654.25 78.41C654.07 78.3167 653.854 78.2333 653.6 78.16C653.347 78.08 653.047 78.04 652.7 78.04C652.4 78.04 652.13 78.08 651.89 78.16C651.65 78.2333 651.444 78.3367 651.27 78.47C651.104 78.6033 650.974 78.76 650.88 78.94C650.794 79.1133 650.75 79.3033 650.75 79.51C650.75 79.77 650.824 79.9867 650.97 80.16C651.124 80.3333 651.324 80.4833 651.57 80.61C651.817 80.7367 652.097 80.85 652.41 80.95C652.724 81.0433 653.044 81.1467 653.37 81.26C653.704 81.3667 654.027 81.4867 654.34 81.62C654.654 81.7533 654.934 81.92 655.18 82.12C655.427 82.32 655.624 82.5667 655.77 82.86C655.924 83.1467 656 83.4933 656 83.9C656 84.3667 655.917 84.8 655.75 85.2C655.584 85.5933 655.337 85.9367 655.01 86.23C654.684 86.5167 654.284 86.7433 653.81 86.91C653.337 87.0767 652.79 87.16 652.17 87.16C651.464 87.16 650.824 87.0467 650.25 86.82C649.677 86.5867 649.19 86.29 648.79 85.93L649.21 85.25C649.264 85.1633 649.327 85.0967 649.4 85.05C649.474 85.0033 649.567 84.98 649.68 84.98C649.8 84.98 649.927 85.0267 650.06 85.12C650.194 85.2133 650.354 85.3167 650.54 85.43C650.734 85.5433 650.967 85.6467 651.24 85.74C651.514 85.8333 651.854 85.88 652.26 85.88C652.607 85.88 652.91 85.8367 653.17 85.75C653.43 85.6567 653.647 85.5333 653.82 85.38C653.994 85.2267 654.12 85.05 654.2 84.85C654.287 84.65 654.33 84.4367 654.33 84.21C654.33 83.93 654.254 83.7 654.1 83.52C653.954 83.3333 653.757 83.1767 653.51 83.05C653.264 82.9167 652.98 82.8033 652.66 82.71C652.347 82.61 652.024 82.5067 651.69 82.4C651.364 82.2933 651.04 82.1733 650.72 82.04C650.407 81.9 650.127 81.7267 649.88 81.52C649.634 81.3133 649.434 81.06 649.28 80.76C649.134 80.4533 649.06 80.0833 649.06 79.65C649.06 79.2633 649.14 78.8933 649.3 78.54C649.46 78.18 649.694 77.8667 650 77.6C650.307 77.3267 650.684 77.11 651.13 76.95C651.577 76.79 652.087 76.71 652.66 76.71C653.327 76.71 653.924 76.8167 654.45 77.03C654.984 77.2367 655.444 77.5233 655.83 77.89L655.43 78.54Z" fill="#292253"/>
<rect x="713" y="102" width="2" height="30" fill="#292253"/>
<path d="M697.96 115.29L695.21 118.83L693.25 116.47L690.5 120H701.5L697.96 115.29ZM685 110H683V126C683 127.1 683.9 128 685 128H701V126H685V110ZM703 106H689C687.9 106 687 106.9 687 108V122C687 123.1 687.9 124 689 124H703C704.1 124 705 123.1 705 122V108C705 106.9 704.1 106 703 106ZM703 122H689V108H703V122Z" fill="#292253"/>
<path d="M495.96 77.29L493.21 80.83L491.25 78.47L488.5 82H499.5L495.96 77.29ZM483 72H481V88C481 89.1 481.9 90 483 90H499V88H483V72ZM501 68H487C485.9 68 485 68.9 485 70V84C485 85.1 485.9 86 487 86H501C502.1 86 503 85.1 503 84V70C503 68.9 502.1 68 501 68ZM501 84H487V70H501V84Z" fill="#292253"/>
</g>
<defs>
<filter id="filter0_ddd_1_530" x="-5" y="-4" width="738" height="61" filterUnits="userSpaceOnUse" color-interpolation-filters="sRGB">
<feFlood flood-opacity="0" result="BackgroundImageFix"/>
<feColorMatrix in="SourceAlpha" type="matrix" values="0 0 0 0 0 0 0 0 0 0 0 0 0 0 0 0 0 0 127 0" result="hardAlpha"/>
<feOffset dy="1"/>
<feGaussianBlur stdDeviation="2.5"/>
<feColorMatrix type="matrix" values="0 0 0 0 0 0 0 0 0 0 0 0 0 0 0 0 0 0 0.12 0"/>
<feBlend mode="normal" in2="BackgroundImageFix" result="effect1_dropShadow_1_530"/>
<feColorMatrix in="SourceAlpha" type="matrix" values="0 0 0 0 0 0 0 0 0 0 0 0 0 0 0 0 0 0 127 0" result="hardAlpha"/>
<feOffset dy="2"/>
<feGaussianBlur stdDeviation="1"/>
<feColorMatrix type="matrix" values="0 0 0 0 0 0 0 0 0 0 0 0 0 0 0 0 0 0 0.14 0"/>
<feBlend mode="normal" in2="effect1_dropShadow_1_530" result="effect2_dropShadow_1_530"/>
<feColorMatrix in="SourceAlpha" type="matrix" values="0 0 0 0 0 0 0 0 0 0 0 0 0 0 0 0 0 0 127 0" result="hardAlpha"/>
<feMorphology radius="2" operator="erode" in="SourceAlpha" result="effect3_dropShadow_1_530"/>
<feOffset dy="3"/>
<feGaussianBlur stdDeviation="0.5"/>
<feColorMatrix type="matrix" values="0 0 0 0 0 0 0 0 0 0 0 0 0 0 0 0 0 0 0.2 0"/>
<feBlend mode="normal" in2="effect2_dropShadow_1_530" result="effect3_dropShadow_1_530"/>
<feBlend mode="normal" in="SourceGraphic" in2="effect3_dropShadow_1_530" result="shape"/>
</filter>
<clipPath id="clip0_1_530">
<rect width="728" height="1024" rx="4" fill="white"/>
</clipPath>
<clipPath id="clip1_1_530">
<rect width="728" height="51" fill="white"/>
</clipPath>
</defs>
</svg>
