<svg width="749" height="1024" viewBox="0 0 749 1024" fill="none" xmlns="http://www.w3.org/2000/svg">
<g clip-path="url(#clip0_1_233)">
<rect width="749" height="1024" rx="4" fill="white"/>
<rect x="269" y="57" width="480" height="950" rx="4" fill="#292253" fill-opacity="0.26"/>
<rect x="5.5" y="55.5" width="247" height="961" rx="5.5" stroke="#9747FF" stroke-width="3"/>
<rect x="12" y="61" width="38" height="950" rx="4" fill="#E8E9F0"/>
<rect x="54" y="143" width="193" height="868" rx="4" fill="#E8E9F0"/>
<g clip-path="url(#clip1_1_233)" filter="url(#filter0_ddd_1_233)">
<rect width="749" height="51" fill="#292253"/>
<rect width="1998" height="5" fill="#FBBF52"/>
<rect x="24" y="13" width="32" height="32" rx="4" fill="white"/>
<rect x="635" y="13" width="159" height="32" rx="4" fill="white"/>
</g>
<circle cx="31" cy="117" r="16" fill="#292253" fill-opacity="0.26"/>
<rect x="54" y="101" width="193" height="36" rx="4" fill="#E8E9F0"/>
<path d="M100.887 88.42L100.877 90H92.0472V75.67H100.877V77.25H93.9872V82.01H99.5672V83.53H93.9872V88.42H100.887ZM111.64 90H109.93C109.783 90 109.667 89.9633 109.58 89.89C109.5 89.81 109.433 89.7233 109.38 89.63L106.83 85.66C106.803 85.7533 106.773 85.8467 106.74 85.94C106.713 86.0267 106.673 86.1067 106.62 86.18L104.26 89.63C104.193 89.7233 104.12 89.81 104.04 89.89C103.967 89.9633 103.863 90 103.73 90H102.14L105.69 84.8L102.28 79.87H103.99C104.137 79.87 104.243 79.8933 104.31 79.94C104.377 79.9867 104.437 80.0533 104.49 80.14L106.98 83.94C107.033 83.7467 107.117 83.56 107.23 83.38L109.41 80.18C109.47 80.0867 109.533 80.0133 109.6 79.96C109.673 79.9 109.76 79.87 109.86 79.87H111.5L108.09 84.71L111.64 90ZM115.221 87.56C115.548 88 115.904 88.31 116.291 88.49C116.678 88.67 117.111 88.76 117.591 88.76C118.538 88.76 119.264 88.4233 119.771 87.75C120.278 87.0767 120.531 86.1167 120.531 84.87C120.531 84.21 120.471 83.6433 120.351 83.17C120.238 82.6967 120.071 82.31 119.851 82.01C119.631 81.7033 119.361 81.48 119.041 81.34C118.721 81.2 118.358 81.13 117.951 81.13C117.371 81.13 116.861 81.2633 116.421 81.53C115.988 81.7967 115.588 82.1733 115.221 82.66V87.56ZM115.131 81.44C115.558 80.9133 116.051 80.49 116.611 80.17C117.171 79.85 117.811 79.69 118.531 79.69C119.118 79.69 119.648 79.8033 120.121 80.03C120.594 80.25 120.998 80.58 121.331 81.02C121.664 81.4533 121.921 81.9933 122.101 82.64C122.281 83.2867 122.371 84.03 122.371 84.87C122.371 85.6167 122.271 86.3133 122.071 86.96C121.871 87.6 121.581 88.1567 121.201 88.63C120.828 89.0967 120.368 89.4667 119.821 89.74C119.281 90.0067 118.671 90.14 117.991 90.14C117.371 90.14 116.838 90.0367 116.391 89.83C115.951 89.6167 115.561 89.3233 115.221 88.95V93.43H113.431V79.87H114.501C114.754 79.87 114.911 79.9933 114.971 80.24L115.131 81.44ZM126.632 75.27V90H124.852V75.27H126.632ZM133.939 79.71C134.679 79.71 135.345 79.8333 135.939 80.08C136.532 80.3267 137.039 80.6767 137.459 81.13C137.879 81.5833 138.199 82.1333 138.419 82.78C138.645 83.42 138.759 84.1367 138.759 84.93C138.759 85.73 138.645 86.45 138.419 87.09C138.199 87.73 137.879 88.2767 137.459 88.73C137.039 89.1833 136.532 89.5333 135.939 89.78C135.345 90.02 134.679 90.14 133.939 90.14C133.192 90.14 132.519 90.02 131.919 89.78C131.325 89.5333 130.819 89.1833 130.399 88.73C129.979 88.2767 129.655 87.73 129.429 87.09C129.209 86.45 129.099 85.73 129.099 84.93C129.099 84.1367 129.209 83.42 129.429 82.78C129.655 82.1333 129.979 81.5833 130.399 81.13C130.819 80.6767 131.325 80.3267 131.919 80.08C132.519 79.8333 133.192 79.71 133.939 79.71ZM133.939 88.75C134.939 88.75 135.685 88.4167 136.179 87.75C136.672 87.0767 136.919 86.14 136.919 84.94C136.919 83.7333 136.672 82.7933 136.179 82.12C135.685 81.4467 134.939 81.11 133.939 81.11C133.432 81.11 132.989 81.1967 132.609 81.37C132.235 81.5433 131.922 81.7933 131.669 82.12C131.422 82.4467 131.235 82.85 131.109 83.33C130.989 83.8033 130.929 84.34 130.929 84.94C130.929 86.14 131.175 87.0767 131.669 87.75C132.169 88.4167 132.925 88.75 133.939 88.75ZM142.856 81.9C143.176 81.2067 143.57 80.6667 144.036 80.28C144.503 79.8867 145.073 79.69 145.746 79.69C145.96 79.69 146.163 79.7133 146.356 79.76C146.556 79.8067 146.733 79.88 146.886 79.98L146.756 81.31C146.716 81.4767 146.616 81.56 146.456 81.56C146.363 81.56 146.226 81.54 146.046 81.5C145.866 81.46 145.663 81.44 145.436 81.44C145.116 81.44 144.83 81.4867 144.576 81.58C144.33 81.6733 144.106 81.8133 143.906 82C143.713 82.18 143.536 82.4067 143.376 82.68C143.223 82.9467 143.083 83.2533 142.956 83.6V90H141.166V79.87H142.186C142.38 79.87 142.513 79.9067 142.586 79.98C142.66 80.0533 142.71 80.18 142.736 80.36L142.856 81.9ZM154.971 83.83C154.971 83.4167 154.911 83.04 154.791 82.7C154.678 82.3533 154.508 82.0567 154.281 81.81C154.061 81.5567 153.791 81.3633 153.471 81.23C153.151 81.09 152.788 81.02 152.381 81.02C151.528 81.02 150.851 81.27 150.351 81.77C149.858 82.2633 149.551 82.95 149.431 83.83H154.971ZM156.411 88.58C156.191 88.8467 155.928 89.08 155.621 89.28C155.315 89.4733 154.985 89.6333 154.631 89.76C154.285 89.8867 153.925 89.98 153.551 90.04C153.178 90.1067 152.808 90.14 152.441 90.14C151.741 90.14 151.095 90.0233 150.501 89.79C149.915 89.55 149.405 89.2033 148.971 88.75C148.545 88.29 148.211 87.7233 147.971 87.05C147.731 86.3767 147.611 85.6033 147.611 84.73C147.611 84.0233 147.718 83.3633 147.931 82.75C148.151 82.1367 148.465 81.6067 148.871 81.16C149.278 80.7067 149.775 80.3533 150.361 80.1C150.948 79.84 151.608 79.71 152.341 79.71C152.948 79.71 153.508 79.8133 154.021 80.02C154.541 80.22 154.988 80.5133 155.361 80.9C155.741 81.28 156.038 81.7533 156.251 82.32C156.465 82.88 156.571 83.52 156.571 84.24C156.571 84.52 156.541 84.7067 156.481 84.8C156.421 84.8933 156.308 84.94 156.141 84.94H149.371C149.391 85.58 149.478 86.1367 149.631 86.61C149.791 87.0833 150.011 87.48 150.291 87.8C150.571 88.1133 150.905 88.35 151.291 88.51C151.678 88.6633 152.111 88.74 152.591 88.74C153.038 88.74 153.421 88.69 153.741 88.59C154.068 88.4833 154.348 88.37 154.581 88.25C154.815 88.13 155.008 88.02 155.161 87.92C155.321 87.8133 155.458 87.76 155.571 87.76C155.718 87.76 155.831 87.8167 155.911 87.93L156.411 88.58ZM160.598 81.9C160.918 81.2067 161.311 80.6667 161.778 80.28C162.244 79.8867 162.814 79.69 163.488 79.69C163.701 79.69 163.904 79.7133 164.098 79.76C164.298 79.8067 164.474 79.88 164.628 79.98L164.498 81.31C164.458 81.4767 164.358 81.56 164.198 81.56C164.104 81.56 163.968 81.54 163.788 81.5C163.608 81.46 163.404 81.44 163.178 81.44C162.858 81.44 162.571 81.4867 162.318 81.58C162.071 81.6733 161.848 81.8133 161.648 82C161.454 82.18 161.278 82.4067 161.118 82.68C160.964 82.9467 160.824 83.2533 160.698 83.6V90H158.908V79.87H159.928C160.121 79.87 160.254 79.9067 160.328 79.98C160.401 80.0533 160.451 80.18 160.478 80.36L160.598 81.9Z" fill="#292253"/>
<rect x="56" y="73" width="10" height="10" fill="#292253"/>
<rect x="64" y="77" width="10" height="2" fill="#292253"/>
<rect x="69" y="89" width="8" height="2" fill="#292253"/>
<rect x="69" y="78" width="2" height="11" fill="#292253"/>
<rect x="74" y="73" width="10" height="10" fill="#292253"/>
<rect x="74" y="85" width="10" height="10" fill="#292253"/>
<rect x="12" y="68" width="2" height="30" fill="#292253"/>
<rect x="16" y="73" width="10" height="10" fill="#292253"/>
<rect x="24" y="77" width="10" height="2" fill="#292253"/>
<rect x="29" y="89" width="8" height="2" fill="#292253"/>
<rect x="29" y="78" width="2" height="11" fill="#292253"/>
<rect x="34" y="73" width="10" height="10" fill="#292253"/>
<rect x="34" y="85" width="10" height="10" fill="#292253"/>
<path d="M164.708 119.958H155.958V128.708H153.042V119.958H144.292V117.042H153.042V108.292H155.958V117.042H164.708V119.958Z" fill="#292253"/>
<path d="M180.292 106.833V109.75H200.708V106.833H180.292ZM180.292 121.417H186.125V130.167H194.875V121.417H200.708L190.5 111.208L180.292 121.417Z" fill="#292253"/>
<path d="M220.194 117.042L214.375 122.875L220.194 128.708V124.333H230.417V121.417H220.194V117.042ZM240.625 114.125L234.806 108.292V112.667H224.583V115.583H234.806V119.958L240.625 114.125Z" fill="#292253"/>
</g>
<defs>
<filter id="filter0_ddd_1_233" x="-5" y="-4" width="759" height="61" filterUnits="userSpaceOnUse" color-interpolation-filters="sRGB">
<feFlood flood-opacity="0" result="BackgroundImageFix"/>
<feColorMatrix in="SourceAlpha" type="matrix" values="0 0 0 0 0 0 0 0 0 0 0 0 0 0 0 0 0 0 127 0" result="hardAlpha"/>
<feOffset dy="1"/>
<feGaussianBlur stdDeviation="2.5"/>
<feColorMatrix type="matrix" values="0 0 0 0 0 0 0 0 0 0 0 0 0 0 0 0 0 0 0.12 0"/>
<feBlend mode="normal" in2="BackgroundImageFix" result="effect1_dropShadow_1_233"/>
<feColorMatrix in="SourceAlpha" type="matrix" values="0 0 0 0 0 0 0 0 0 0 0 0 0 0 0 0 0 0 127 0" result="hardAlpha"/>
<feOffset dy="2"/>
<feGaussianBlur stdDeviation="1"/>
<feColorMatrix type="matrix" values="0 0 0 0 0 0 0 0 0 0 0 0 0 0 0 0 0 0 0.14 0"/>
<feBlend mode="normal" in2="effect1_dropShadow_1_233" result="effect2_dropShadow_1_233"/>
<feColorMatrix in="SourceAlpha" type="matrix" values="0 0 0 0 0 0 0 0 0 0 0 0 0 0 0 0 0 0 127 0" result="hardAlpha"/>
<feMorphology radius="2" operator="erode" in="SourceAlpha" result="effect3_dropShadow_1_233"/>
<feOffset dy="3"/>
<feGaussianBlur stdDeviation="0.5"/>
<feColorMatrix type="matrix" values="0 0 0 0 0 0 0 0 0 0 0 0 0 0 0 0 0 0 0.2 0"/>
<feBlend mode="normal" in2="effect2_dropShadow_1_233" result="effect3_dropShadow_1_233"/>
<feBlend mode="normal" in="SourceGraphic" in2="effect3_dropShadow_1_233" result="shape"/>
</filter>
<clipPath id="clip0_1_233">
<rect width="749" height="1024" rx="4" fill="white"/>
</clipPath>
<clipPath id="clip1_1_233">
<rect width="749" height="51" fill="white"/>
</clipPath>
</defs>
</svg>
