<svg width="728" height="1024" viewBox="0 0 728 1024" fill="none" xmlns="http://www.w3.org/2000/svg">
<g clip-path="url(#clip0_1_460)">
<rect width="728" height="1024" rx="4" fill="white"/>
<rect x="-444" y="59" width="901" height="952" rx="4" fill="#292253" fill-opacity="0.26"/>
<path d="M673 67C673 64.7909 674.791 63 677 63H711C713.209 63 715 64.7909 715 67V1004C715 1006.21 713.209 1008 711 1008H677C674.791 1008 673 1006.21 673 1004V67Z" fill="#E8E9F0"/>
<path d="M673 66.9706C673 64.7777 673.308 63 673.689 63H714.311C714.692 63 715 64.7777 715 66.9706V1004.03C715 1006.22 714.692 1008 714.311 1008H673.689C673.308 1008 673 1006.22 673 1004.03V66.9706Z" fill="#E8E9F0"/>
<path d="M716 57.5H480C476.962 57.5 474.5 59.9624 474.5 63V1007C474.5 1010.04 476.962 1012.5 480 1012.5H716C719.038 1012.5 721.5 1010.04 721.5 1007V63C721.5 59.9624 719.038 57.5 716 57.5Z" stroke="#9747FF" stroke-width="3"/>
<path d="M483 103C483 100.791 484.791 99 487 99H664C666.209 99 668 100.791 668 103V178C668 180.209 666.209 182 664 182H487C484.791 182 483 180.209 483 178V103Z" fill="#E8E9F0"/>
<path d="M483 99.3487C483 99.1561 484.358 99 486.033 99H664.967C666.642 99 668 99.1561 668 99.3487V181.651C668 181.844 666.642 182 664.967 182H486.033C484.358 182 483 181.844 483 181.651V99.3487Z" fill="#E8E9F0"/>
<path d="M483 202C483 199.791 484.791 198 487 198H664C666.209 198 668 199.791 668 202V277C668 279.209 666.209 281 664 281H487C484.791 281 483 279.209 483 277V202Z" fill="#E8E9F0"/>
<path d="M483 198.349C483 198.156 484.358 198 486.033 198H664.967C666.642 198 668 198.156 668 198.349V280.651C668 280.844 666.642 281 664.967 281H486.033C484.358 281 483 280.844 483 280.651V198.349Z" fill="#E8E9F0"/>
<path d="M483 301C483 298.791 484.791 297 487 297H664C666.209 297 668 298.791 668 301V376C668 378.209 666.209 380 664 380H487C484.791 380 483 378.209 483 376V301Z" fill="#E8E9F0"/>
<path d="M483 297.349C483 297.156 484.358 297 486.033 297H664.967C666.642 297 668 297.156 668 297.349V379.651C668 379.844 666.642 380 664.967 380H486.033C484.358 380 483 379.844 483 379.651V297.349Z" fill="#E8E9F0"/>
<path d="M483 400C483 397.791 484.791 396 487 396H664C666.209 396 668 397.791 668 400V550C668 552.209 666.209 554 664 554H487C484.791 554 483 552.209 483 550V400Z" fill="#E8E9F0"/>
<path d="M483 396.664C483 396.297 484.358 396 486.033 396H664.967C666.642 396 668 396.297 668 396.664V553.336C668 553.703 666.642 554 664.967 554H486.033C484.358 554 483 553.703 483 553.336V396.664Z" fill="#E8E9F0"/>
<path d="M483 574C483 571.791 484.791 570 487 570H664C666.209 570 668 571.791 668 574V724C668 726.209 666.209 728 664 728H487C484.791 728 483 726.209 483 724V574Z" fill="#E8E9F0"/>
<path d="M483 570.664C483 570.297 484.358 570 486.033 570H664.967C666.642 570 668 570.297 668 570.664V727.336C668 727.703 666.642 728 664.967 728H486.033C484.358 728 483 727.703 483 727.336V570.664Z" fill="#E8E9F0"/>
<path d="M483 748C483 745.791 484.791 744 487 744H664C666.209 744 668 745.791 668 748V785C668 787.209 666.209 789 664 789H487C484.791 789 483 787.209 483 785V748Z" fill="#E8E9F0"/>
<path d="M483 744.189C483 744.085 484.358 744 486.033 744H664.967C666.642 744 668 744.085 668 744.189V788.811C668 788.915 666.642 789 664.967 789H486.033C484.358 789 483 788.915 483 788.811V744.189Z" fill="#E8E9F0"/>
<path d="M483 809C483 806.791 484.791 805 487 805H664C666.209 805 668 806.791 668 809V846C668 848.209 666.209 850 664 850H487C484.791 850 483 848.209 483 846V809Z" fill="#E8E9F0"/>
<path d="M483 805.189C483 805.085 484.358 805 486.033 805H664.967C666.642 805 668 805.085 668 805.189V849.811C668 849.915 666.642 850 664.967 850H486.033C484.358 850 483 849.915 483 849.811V805.189Z" fill="#E8E9F0"/>
<path d="M483 870C483 867.791 484.791 866 487 866H664C666.209 866 668 867.791 668 870V907C668 909.209 666.209 911 664 911H487C484.791 911 483 909.209 483 907V870Z" fill="#E8E9F0"/>
<path d="M483 866.189C483 866.085 484.358 866 486.033 866H664.967C666.642 866 668 866.085 668 866.189V910.811C668 910.915 666.642 911 664.967 911H486.033C484.358 911 483 910.915 483 910.811V866.189Z" fill="#E8E9F0"/>
<path d="M483 931C483 928.791 484.791 927 487 927H664C666.209 927 668 928.791 668 931V968C668 970.209 666.209 972 664 972H487C484.791 972 483 970.209 483 968V931Z" fill="#E8E9F0"/>
<path d="M483 927.189C483 927.085 484.358 927 486.033 927H664.967C666.642 927 668 927.085 668 927.189V971.811C668 971.915 666.642 972 664.967 972H486.033C484.358 972 483 971.915 483 971.811V927.189Z" fill="#E8E9F0"/>
<g clip-path="url(#clip1_1_460)" filter="url(#filter0_ddd_1_460)">
<rect width="728" height="51" fill="#292253"/>
<rect x="-712" width="1998" height="5" fill="#FBBF52"/>
<rect x="-77" y="13" width="159" height="32" rx="4" fill="white"/>
<circle cx="694" cy="29" r="16" fill="white"/>
<circle cx="107" cy="29" r="16" fill="white"/>
</g>
<circle cx="694" cy="118" r="16" fill="#292253" fill-opacity="0.26"/>
<circle cx="694" cy="153" r="16" fill="#292253" fill-opacity="0.26"/>
<path d="M522.37 79.84C522.37 80.9133 522.2 81.89 521.86 82.77C521.52 83.65 521.04 84.4033 520.42 85.03C519.8 85.6567 519.054 86.1433 518.18 86.49C517.314 86.83 516.354 87 515.3 87H509.95V72.67H515.3C516.354 72.67 517.314 72.8433 518.18 73.19C519.054 73.53 519.8 74.0167 520.42 74.65C521.04 75.2767 521.52 76.03 521.86 76.91C522.2 77.79 522.37 78.7667 522.37 79.84ZM520.38 79.84C520.38 78.96 520.26 78.1733 520.02 77.48C519.78 76.7867 519.44 76.2 519 75.72C518.56 75.24 518.027 74.8733 517.4 74.62C516.774 74.3667 516.074 74.24 515.3 74.24H511.89V85.43H515.3C516.074 85.43 516.774 85.3033 517.4 85.05C518.027 84.7967 518.56 84.4333 519 83.96C519.44 83.48 519.78 82.8933 520.02 82.2C520.26 81.5067 520.38 80.72 520.38 79.84ZM531.538 80.83C531.538 80.4167 531.478 80.04 531.358 79.7C531.245 79.3533 531.075 79.0567 530.848 78.81C530.628 78.5567 530.358 78.3633 530.038 78.23C529.718 78.09 529.355 78.02 528.948 78.02C528.095 78.02 527.418 78.27 526.918 78.77C526.425 79.2633 526.118 79.95 525.998 80.83H531.538ZM532.978 85.58C532.758 85.8467 532.495 86.08 532.188 86.28C531.882 86.4733 531.552 86.6333 531.198 86.76C530.852 86.8867 530.492 86.98 530.118 87.04C529.745 87.1067 529.375 87.14 529.008 87.14C528.308 87.14 527.662 87.0233 527.068 86.79C526.482 86.55 525.972 86.2033 525.538 85.75C525.112 85.29 524.778 84.7233 524.538 84.05C524.298 83.3767 524.178 82.6033 524.178 81.73C524.178 81.0233 524.285 80.3633 524.498 79.75C524.718 79.1367 525.032 78.6067 525.438 78.16C525.845 77.7067 526.342 77.3533 526.928 77.1C527.515 76.84 528.175 76.71 528.908 76.71C529.515 76.71 530.075 76.8133 530.588 77.02C531.108 77.22 531.555 77.5133 531.928 77.9C532.308 78.28 532.605 78.7533 532.818 79.32C533.032 79.88 533.138 80.52 533.138 81.24C533.138 81.52 533.108 81.7067 533.048 81.8C532.988 81.8933 532.875 81.94 532.708 81.94H525.938C525.958 82.58 526.045 83.1367 526.198 83.61C526.358 84.0833 526.578 84.48 526.858 84.8C527.138 85.1133 527.472 85.35 527.858 85.51C528.245 85.6633 528.678 85.74 529.158 85.74C529.605 85.74 529.988 85.69 530.308 85.59C530.635 85.4833 530.915 85.37 531.148 85.25C531.382 85.13 531.575 85.02 531.728 84.92C531.888 84.8133 532.025 84.76 532.138 84.76C532.285 84.76 532.398 84.8167 532.478 84.93L532.978 85.58ZM538.507 87.16C537.707 87.16 537.09 86.9367 536.657 86.49C536.23 86.0433 536.017 85.4 536.017 84.56V78.36H534.797C534.69 78.36 534.6 78.33 534.527 78.27C534.453 78.2033 534.417 78.1033 534.417 77.97V77.26L536.077 77.05L536.487 73.92C536.507 73.82 536.55 73.74 536.617 73.68C536.69 73.6133 536.783 73.58 536.897 73.58H537.797V77.07H540.727V78.36H537.797V84.44C537.797 84.8667 537.9 85.1833 538.107 85.39C538.313 85.5967 538.58 85.7 538.907 85.7C539.093 85.7 539.253 85.6767 539.387 85.63C539.527 85.5767 539.647 85.52 539.747 85.46C539.847 85.4 539.93 85.3467 539.997 85.3C540.07 85.2467 540.133 85.22 540.187 85.22C540.28 85.22 540.363 85.2767 540.437 85.39L540.957 86.24C540.65 86.5267 540.28 86.7533 539.847 86.92C539.413 87.08 538.967 87.16 538.507 87.16ZM548.205 82.44C547.385 82.4667 546.685 82.5333 546.105 82.64C545.531 82.74 545.061 82.8733 544.695 83.04C544.335 83.2067 544.071 83.4033 543.905 83.63C543.745 83.8567 543.665 84.11 543.665 84.39C543.665 84.6567 543.708 84.8867 543.795 85.08C543.881 85.2733 543.998 85.4333 544.145 85.56C544.298 85.68 544.475 85.77 544.675 85.83C544.881 85.8833 545.101 85.91 545.335 85.91C545.648 85.91 545.935 85.88 546.195 85.82C546.455 85.7533 546.698 85.66 546.925 85.54C547.158 85.42 547.378 85.2767 547.585 85.11C547.798 84.9433 548.005 84.7533 548.205 84.54V82.44ZM542.455 78.3C543.015 77.76 543.618 77.3567 544.265 77.09C544.911 76.8233 545.628 76.69 546.415 76.69C546.981 76.69 547.485 76.7833 547.925 76.97C548.365 77.1567 548.735 77.4167 549.035 77.75C549.335 78.0833 549.561 78.4867 549.715 78.96C549.868 79.4333 549.945 79.9533 549.945 80.52V87H549.155C548.981 87 548.848 86.9733 548.755 86.92C548.661 86.86 548.588 86.7467 548.535 86.58L548.335 85.62C548.068 85.8667 547.808 86.0867 547.555 86.28C547.301 86.4667 547.035 86.6267 546.755 86.76C546.475 86.8867 546.175 86.9833 545.855 87.05C545.541 87.1233 545.191 87.16 544.805 87.16C544.411 87.16 544.041 87.1067 543.695 87C543.348 86.8867 543.045 86.72 542.785 86.5C542.531 86.28 542.328 86.0033 542.175 85.67C542.028 85.33 541.955 84.93 541.955 84.47C541.955 84.07 542.065 83.6867 542.285 83.32C542.505 82.9467 542.861 82.6167 543.355 82.33C543.848 82.0433 544.491 81.81 545.285 81.63C546.078 81.4433 547.051 81.3367 548.205 81.31V80.52C548.205 79.7333 548.035 79.14 547.695 78.74C547.355 78.3333 546.858 78.13 546.205 78.13C545.765 78.13 545.395 78.1867 545.095 78.3C544.801 78.4067 544.545 78.53 544.325 78.67C544.111 78.8033 543.925 78.9267 543.765 79.04C543.611 79.1467 543.458 79.2 543.305 79.2C543.185 79.2 543.081 79.17 542.995 79.11C542.908 79.0433 542.835 78.9633 542.775 78.87L542.455 78.3ZM554.686 76.87V87H552.906V76.87H554.686ZM555.066 73.69C555.066 73.8633 555.029 74.0267 554.956 74.18C554.889 74.3267 554.796 74.46 554.676 74.58C554.563 74.6933 554.426 74.7833 554.266 74.85C554.113 74.9167 553.949 74.95 553.776 74.95C553.603 74.95 553.439 74.9167 553.286 74.85C553.139 74.7833 553.009 74.6933 552.896 74.58C552.783 74.46 552.693 74.3267 552.626 74.18C552.559 74.0267 552.526 73.8633 552.526 73.69C552.526 73.5167 552.559 73.3533 552.626 73.2C552.693 73.04 552.783 72.9033 552.896 72.79C553.009 72.67 553.139 72.5767 553.286 72.51C553.439 72.4433 553.603 72.41 553.776 72.41C553.949 72.41 554.113 72.4433 554.266 72.51C554.426 72.5767 554.563 72.67 554.676 72.79C554.796 72.9033 554.889 73.04 554.956 73.2C555.029 73.3533 555.066 73.5167 555.066 73.69ZM559.601 72.27V87H557.821V72.27H559.601ZM568.537 78.54C568.457 78.6867 568.334 78.76 568.167 78.76C568.067 78.76 567.954 78.7233 567.827 78.65C567.701 78.5767 567.544 78.4967 567.357 78.41C567.177 78.3167 566.961 78.2333 566.707 78.16C566.454 78.08 566.154 78.04 565.807 78.04C565.507 78.04 565.237 78.08 564.997 78.16C564.757 78.2333 564.551 78.3367 564.377 78.47C564.211 78.6033 564.081 78.76 563.987 78.94C563.901 79.1133 563.857 79.3033 563.857 79.51C563.857 79.77 563.931 79.9867 564.077 80.16C564.231 80.3333 564.431 80.4833 564.677 80.61C564.924 80.7367 565.204 80.85 565.517 80.95C565.831 81.0433 566.151 81.1467 566.477 81.26C566.811 81.3667 567.134 81.4867 567.447 81.62C567.761 81.7533 568.041 81.92 568.287 82.12C568.534 82.32 568.731 82.5667 568.877 82.86C569.031 83.1467 569.107 83.4933 569.107 83.9C569.107 84.3667 569.024 84.8 568.857 85.2C568.691 85.5933 568.444 85.9367 568.117 86.23C567.791 86.5167 567.391 86.7433 566.917 86.91C566.444 87.0767 565.897 87.16 565.277 87.16C564.571 87.16 563.931 87.0467 563.357 86.82C562.784 86.5867 562.297 86.29 561.897 85.93L562.317 85.25C562.371 85.1633 562.434 85.0967 562.507 85.05C562.581 85.0033 562.674 84.98 562.787 84.98C562.907 84.98 563.034 85.0267 563.167 85.12C563.301 85.2133 563.461 85.3167 563.647 85.43C563.841 85.5433 564.074 85.6467 564.347 85.74C564.621 85.8333 564.961 85.88 565.367 85.88C565.714 85.88 566.017 85.8367 566.277 85.75C566.537 85.6567 566.754 85.5333 566.927 85.38C567.101 85.2267 567.227 85.05 567.307 84.85C567.394 84.65 567.437 84.4367 567.437 84.21C567.437 83.93 567.361 83.7 567.207 83.52C567.061 83.3333 566.864 83.1767 566.617 83.05C566.371 82.9167 566.087 82.8033 565.767 82.71C565.454 82.61 565.131 82.5067 564.797 82.4C564.471 82.2933 564.147 82.1733 563.827 82.04C563.514 81.9 563.234 81.7267 562.987 81.52C562.741 81.3133 562.541 81.06 562.387 80.76C562.241 80.4533 562.167 80.0833 562.167 79.65C562.167 79.2633 562.247 78.8933 562.407 78.54C562.567 78.18 562.801 77.8667 563.107 77.6C563.414 77.3267 563.791 77.11 564.237 76.95C564.684 76.79 565.194 76.71 565.767 76.71C566.434 76.71 567.031 76.8167 567.557 77.03C568.091 77.2367 568.551 77.5233 568.937 77.89L568.537 78.54Z" fill="#292253"/>
<rect x="713" y="68" width="2" height="30" fill="#292253"/>
<path d="M685 89H703V87H685V89ZM685 84H703V82H685V84ZM685 77V79H703V77H685Z" fill="#292253"/>
<path d="M483 85H501V83H483V85ZM483 80H501V78H483V80ZM483 73V75H501V73H483Z" fill="#292253"/>
</g>
<defs>
<filter id="filter0_ddd_1_460" x="-5" y="-4" width="738" height="61" filterUnits="userSpaceOnUse" color-interpolation-filters="sRGB">
<feFlood flood-opacity="0" result="BackgroundImageFix"/>
<feColorMatrix in="SourceAlpha" type="matrix" values="0 0 0 0 0 0 0 0 0 0 0 0 0 0 0 0 0 0 127 0" result="hardAlpha"/>
<feOffset dy="1"/>
<feGaussianBlur stdDeviation="2.5"/>
<feColorMatrix type="matrix" values="0 0 0 0 0 0 0 0 0 0 0 0 0 0 0 0 0 0 0.12 0"/>
<feBlend mode="normal" in2="BackgroundImageFix" result="effect1_dropShadow_1_460"/>
<feColorMatrix in="SourceAlpha" type="matrix" values="0 0 0 0 0 0 0 0 0 0 0 0 0 0 0 0 0 0 127 0" result="hardAlpha"/>
<feOffset dy="2"/>
<feGaussianBlur stdDeviation="1"/>
<feColorMatrix type="matrix" values="0 0 0 0 0 0 0 0 0 0 0 0 0 0 0 0 0 0 0.14 0"/>
<feBlend mode="normal" in2="effect1_dropShadow_1_460" result="effect2_dropShadow_1_460"/>
<feColorMatrix in="SourceAlpha" type="matrix" values="0 0 0 0 0 0 0 0 0 0 0 0 0 0 0 0 0 0 127 0" result="hardAlpha"/>
<feMorphology radius="2" operator="erode" in="SourceAlpha" result="effect3_dropShadow_1_460"/>
<feOffset dy="3"/>
<feGaussianBlur stdDeviation="0.5"/>
<feColorMatrix type="matrix" values="0 0 0 0 0 0 0 0 0 0 0 0 0 0 0 0 0 0 0.2 0"/>
<feBlend mode="normal" in2="effect2_dropShadow_1_460" result="effect3_dropShadow_1_460"/>
<feBlend mode="normal" in="SourceGraphic" in2="effect3_dropShadow_1_460" result="shape"/>
</filter>
<clipPath id="clip0_1_460">
<rect width="728" height="1024" rx="4" fill="white"/>
</clipPath>
<clipPath id="clip1_1_460">
<rect width="728" height="51" fill="white"/>
</clipPath>
</defs>
</svg>
