<svg width="1440" height="136" viewBox="0 0 1440 136" fill="none" xmlns="http://www.w3.org/2000/svg">
<g clip-path="url(#clip0_1_199)">
<rect width="1440" height="136" rx="4" fill="white"/>
<g filter="url(#filter0_ddd_1_199)">
<g clip-path="url(#clip1_1_199)">
<rect x="3" y="5" width="1434" height="46" rx="4" fill="#292253"/>
<rect x="3" y="5" width="1998" height="5" fill="#FBBF52"/>
<rect x="23" y="15" width="32" height="32" rx="4" fill="white"/>
<circle cx="1409" cy="31" r="16" fill="white"/>
</g>
<rect x="1.5" y="3.5" width="1437" height="49" rx="5.5" stroke="#9747FF" stroke-width="3"/>
</g>
<rect x="6" y="81" width="113" height="36" rx="4" fill="#E8E9F0"/>
<path d="M32.7585 104V95.2727H34.6037V98.8736H38.3494V95.2727H40.1903V104H38.3494V100.395H34.6037V104H32.7585ZM44.6349 104.128C43.973 104.128 43.4006 103.987 42.9176 103.706C42.4375 103.422 42.0668 103.027 41.8054 102.521C41.544 102.013 41.4134 101.423 41.4134 100.753C41.4134 100.077 41.544 99.4858 41.8054 98.9801C42.0668 98.4716 42.4375 98.0767 42.9176 97.7955C43.4006 97.5114 43.973 97.3693 44.6349 97.3693C45.2969 97.3693 45.8679 97.5114 46.348 97.7955C46.831 98.0767 47.2031 98.4716 47.4645 98.9801C47.7259 99.4858 47.8565 100.077 47.8565 100.753C47.8565 101.423 47.7259 102.013 47.4645 102.521C47.2031 103.027 46.831 103.422 46.348 103.706C45.8679 103.987 45.2969 104.128 44.6349 104.128ZM44.6435 102.722C44.9446 102.722 45.196 102.636 45.3977 102.466C45.5994 102.293 45.7514 102.057 45.8537 101.759C45.9588 101.46 46.0114 101.121 46.0114 100.74C46.0114 100.359 45.9588 100.02 45.8537 99.7216C45.7514 99.4233 45.5994 99.1875 45.3977 99.0142C45.196 98.8409 44.9446 98.7543 44.6435 98.7543C44.3395 98.7543 44.0838 98.8409 43.8764 99.0142C43.6719 99.1875 43.517 99.4233 43.4119 99.7216C43.3097 100.02 43.2585 100.359 43.2585 100.74C43.2585 101.121 43.3097 101.46 43.4119 101.759C43.517 102.057 43.6719 102.293 43.8764 102.466C44.0838 102.636 44.3395 102.722 44.6435 102.722ZM49.0369 104V97.4545H50.767V98.6094H50.8438C50.9801 98.2259 51.2074 97.9233 51.5256 97.7017C51.8438 97.4801 52.2244 97.3693 52.6676 97.3693C53.1165 97.3693 53.4986 97.4815 53.8139 97.706C54.1293 97.9276 54.3395 98.2287 54.4446 98.6094H54.5128C54.6463 98.2344 54.8878 97.9347 55.2372 97.7102C55.5895 97.483 56.0057 97.3693 56.4858 97.3693C57.0966 97.3693 57.5923 97.5639 57.973 97.9531C58.3565 98.3395 58.5483 98.8878 58.5483 99.598V104H56.7372V99.956C56.7372 99.5923 56.6406 99.3196 56.4474 99.1378C56.2543 98.956 56.0128 98.8651 55.723 98.8651C55.3935 98.8651 55.1364 98.9702 54.9517 99.1804C54.767 99.3878 54.6747 99.6619 54.6747 100.003V104H52.9148V99.9176C52.9148 99.5966 52.8224 99.3409 52.6378 99.1506C52.456 98.9602 52.2159 98.8651 51.9176 98.8651C51.7159 98.8651 51.5341 98.9162 51.3722 99.0185C51.2131 99.1179 51.0866 99.2585 50.9929 99.4403C50.8991 99.6193 50.8523 99.8295 50.8523 100.071V104H49.0369ZM62.9652 104.128C62.2919 104.128 61.7124 103.991 61.2266 103.719C60.7436 103.443 60.3714 103.054 60.1101 102.551C59.8487 102.045 59.718 101.447 59.718 100.757C59.718 100.084 59.8487 99.4929 60.1101 98.9844C60.3714 98.4759 60.7393 98.0795 61.2138 97.7955C61.6911 97.5114 62.2507 97.3693 62.8928 97.3693C63.3246 97.3693 63.7266 97.4389 64.0987 97.5781C64.4737 97.7145 64.8004 97.9205 65.0788 98.196C65.3601 98.4716 65.5788 98.8182 65.7351 99.2358C65.8913 99.6506 65.9695 100.136 65.9695 100.693V101.192H60.4425V100.067H64.2607C64.2607 99.8054 64.2038 99.5739 64.0902 99.3722C63.9766 99.1705 63.8189 99.0128 63.6172 98.8991C63.4183 98.7827 63.1868 98.7244 62.9226 98.7244C62.647 98.7244 62.4027 98.7884 62.1896 98.9162C61.9794 99.0412 61.8146 99.2102 61.6953 99.4233C61.576 99.6335 61.5149 99.8679 61.5121 100.126V101.196C61.5121 101.52 61.5717 101.8 61.6911 102.036C61.8132 102.271 61.9851 102.453 62.2067 102.581C62.4283 102.709 62.6911 102.773 62.995 102.773C63.1967 102.773 63.3814 102.744 63.549 102.688C63.7166 102.631 63.8601 102.545 63.9794 102.432C64.0987 102.318 64.1896 102.179 64.2521 102.014L65.9311 102.125C65.8459 102.528 65.6712 102.881 65.407 103.182C65.1456 103.48 64.8075 103.713 64.3928 103.881C63.9808 104.045 63.505 104.128 62.9652 104.128ZM67.1541 106.455V97.4545H68.9439V98.554H69.0249C69.1044 98.3778 69.2195 98.1989 69.37 98.017C69.5234 97.8324 69.7223 97.679 69.9666 97.5568C70.2138 97.4318 70.5206 97.3693 70.8871 97.3693C71.3643 97.3693 71.8047 97.4943 72.2081 97.7443C72.6115 97.9915 72.9339 98.3651 73.1754 98.8651C73.4169 99.3622 73.5376 99.9858 73.5376 100.736C73.5376 101.466 73.4197 102.082 73.1839 102.585C72.951 103.085 72.6328 103.464 72.2294 103.723C71.8288 103.979 71.38 104.107 70.8828 104.107C70.5305 104.107 70.2308 104.048 69.9837 103.932C69.7393 103.815 69.5391 103.669 69.3828 103.493C69.2266 103.314 69.1072 103.134 69.0249 102.952H68.9695V106.455H67.1541ZM68.9311 100.727C68.9311 101.116 68.9851 101.456 69.093 101.746C69.201 102.036 69.3572 102.261 69.5618 102.423C69.7663 102.582 70.0149 102.662 70.3075 102.662C70.603 102.662 70.853 102.581 71.0575 102.419C71.2621 102.254 71.4169 102.027 71.522 101.737C71.63 101.445 71.6839 101.108 71.6839 100.727C71.6839 100.349 71.6314 100.017 71.5263 99.7301C71.4212 99.4432 71.2663 99.2187 71.0618 99.0568C70.8572 98.8949 70.6058 98.8139 70.3075 98.8139C70.0121 98.8139 69.7621 98.892 69.5575 99.0483C69.3558 99.2045 69.201 99.4261 69.093 99.7131C68.9851 100 68.9311 100.338 68.9311 100.727ZM76.6143 104.124C76.1967 104.124 75.8246 104.051 75.4979 103.906C75.1712 103.759 74.9126 103.541 74.7223 103.254C74.5348 102.964 74.4411 102.604 74.4411 102.172C74.4411 101.808 74.5078 101.503 74.6413 101.256C74.7749 101.009 74.9567 100.81 75.1868 100.659C75.4169 100.509 75.6783 100.395 75.9709 100.318C76.2663 100.241 76.576 100.188 76.8999 100.156C77.2805 100.116 77.5874 100.08 77.8203 100.045C78.0533 100.009 78.2223 99.9545 78.3274 99.8835C78.4325 99.8125 78.4851 99.7074 78.4851 99.5682V99.5426C78.4851 99.2727 78.3999 99.0639 78.2294 98.9162C78.0618 98.7685 77.8232 98.6946 77.5135 98.6946C77.1868 98.6946 76.9268 98.767 76.7337 98.9119C76.5405 99.054 76.4126 99.233 76.3501 99.4489L74.6712 99.3125C74.7564 98.9148 74.924 98.571 75.174 98.2812C75.424 97.9886 75.7464 97.7642 76.1413 97.608C76.5391 97.4489 76.9993 97.3693 77.522 97.3693C77.8857 97.3693 78.2337 97.4119 78.5661 97.4972C78.9013 97.5824 79.1982 97.7145 79.4567 97.8935C79.718 98.0724 79.924 98.3026 80.0746 98.5838C80.2251 98.8622 80.3004 99.196 80.3004 99.5852V104H78.5788V103.092H78.5277C78.4226 103.297 78.282 103.477 78.1058 103.634C77.9297 103.787 77.718 103.908 77.4709 103.996C77.2237 104.081 76.9382 104.124 76.6143 104.124ZM77.1342 102.871C77.4013 102.871 77.6371 102.818 77.8416 102.713C78.0462 102.605 78.2067 102.46 78.3232 102.278C78.4396 102.097 78.4979 101.891 78.4979 101.661V100.966C78.4411 101.003 78.3629 101.037 78.2635 101.068C78.1669 101.097 78.0575 101.124 77.9354 101.149C77.8132 101.172 77.6911 101.193 77.5689 101.213C77.4467 101.23 77.3359 101.246 77.2365 101.26C77.0234 101.291 76.8374 101.341 76.6783 101.409C76.5192 101.477 76.3956 101.57 76.3075 101.686C76.2195 101.8 76.1754 101.942 76.1754 102.112C76.1754 102.359 76.2649 102.548 76.4439 102.679C76.6257 102.807 76.8558 102.871 77.1342 102.871ZM84.6577 106.591C84.0696 106.591 83.5653 106.51 83.1449 106.348C82.7273 106.189 82.3949 105.972 82.1477 105.696C81.9006 105.42 81.7401 105.111 81.6662 104.767L83.3452 104.541C83.3963 104.672 83.4773 104.794 83.5881 104.908C83.6989 105.021 83.8452 105.112 84.027 105.18C84.2116 105.251 84.4361 105.287 84.7003 105.287C85.0952 105.287 85.4205 105.19 85.6761 104.997C85.9347 104.807 86.0639 104.487 86.0639 104.038V102.841H85.9872C85.9077 103.023 85.7884 103.195 85.6293 103.357C85.4702 103.518 85.2656 103.651 85.0156 103.753C84.7656 103.855 84.4673 103.906 84.1207 103.906C83.6293 103.906 83.1818 103.793 82.7784 103.565C82.3778 103.335 82.0582 102.984 81.8196 102.513C81.5838 102.038 81.4659 101.439 81.4659 100.714C81.4659 99.973 81.5866 99.3537 81.8281 98.8565C82.0696 98.3594 82.3906 97.9872 82.7912 97.7401C83.1946 97.4929 83.6364 97.3693 84.1165 97.3693C84.483 97.3693 84.7898 97.4318 85.0369 97.5568C85.2841 97.679 85.483 97.8324 85.6335 98.017C85.7869 98.1989 85.9048 98.3778 85.9872 98.554H86.0554V97.4545H87.858V104.064C87.858 104.621 87.7216 105.087 87.4489 105.462C87.1761 105.837 86.7983 106.118 86.3153 106.305C85.8352 106.496 85.2827 106.591 84.6577 106.591ZM84.696 102.543C84.9886 102.543 85.2358 102.47 85.4375 102.325C85.642 102.178 85.7983 101.967 85.9062 101.695C86.017 101.419 86.0724 101.089 86.0724 100.706C86.0724 100.322 86.0185 99.9901 85.9105 99.7088C85.8026 99.4247 85.6463 99.2045 85.4418 99.0483C85.2372 98.892 84.9886 98.8139 84.696 98.8139C84.3977 98.8139 84.1463 98.8949 83.9418 99.0568C83.7372 99.2159 83.5824 99.4375 83.4773 99.7216C83.3722 100.006 83.3196 100.334 83.3196 100.706C83.3196 101.084 83.3722 101.411 83.4773 101.686C83.5852 101.959 83.7401 102.17 83.9418 102.321C84.1463 102.469 84.3977 102.543 84.696 102.543ZM92.2855 104.128C91.6122 104.128 91.0327 103.991 90.5469 103.719C90.0639 103.443 89.6918 103.054 89.4304 102.551C89.169 102.045 89.0384 101.447 89.0384 100.757C89.0384 100.084 89.169 99.4929 89.4304 98.9844C89.6918 98.4759 90.0597 98.0795 90.5341 97.7955C91.0114 97.5114 91.571 97.3693 92.2131 97.3693C92.6449 97.3693 93.0469 97.4389 93.419 97.5781C93.794 97.7145 94.1207 97.9205 94.3991 98.196C94.6804 98.4716 94.8991 98.8182 95.0554 99.2358C95.2116 99.6506 95.2898 100.136 95.2898 100.693V101.192H89.7628V100.067H93.581C93.581 99.8054 93.5241 99.5739 93.4105 99.3722C93.2969 99.1705 93.1392 99.0128 92.9375 98.8991C92.7386 98.7827 92.5071 98.7244 92.2429 98.7244C91.9673 98.7244 91.723 98.7884 91.5099 98.9162C91.2997 99.0412 91.1349 99.2102 91.0156 99.4233C90.8963 99.6335 90.8352 99.8679 90.8324 100.126V101.196C90.8324 101.52 90.892 101.8 91.0114 102.036C91.1335 102.271 91.3054 102.453 91.527 102.581C91.7486 102.709 92.0114 102.773 92.3153 102.773C92.517 102.773 92.7017 102.744 92.8693 102.688C93.0369 102.631 93.1804 102.545 93.2997 102.432C93.419 102.318 93.5099 102.179 93.5724 102.014L95.2514 102.125C95.1662 102.528 94.9915 102.881 94.7273 103.182C94.4659 103.48 94.1278 103.713 93.7131 103.881C93.3011 104.045 92.8253 104.128 92.2855 104.128Z" fill="#292253"/>
<rect x="1377" y="81" width="57" height="36" rx="4" fill="#E8E9F0"/>
<path d="M1392.76 104V95.2727H1394.6V98.8736H1398.35V95.2727H1400.19V104H1398.35V100.395H1394.6V104H1392.76ZM1404.66 104.128C1403.99 104.128 1403.41 103.991 1402.92 103.719C1402.44 103.443 1402.07 103.054 1401.81 102.551C1401.54 102.045 1401.41 101.447 1401.41 100.757C1401.41 100.084 1401.54 99.4929 1401.81 98.9844C1402.07 98.4759 1402.43 98.0795 1402.91 97.7955C1403.39 97.5114 1403.95 97.3693 1404.59 97.3693C1405.02 97.3693 1405.42 97.4389 1405.79 97.5781C1406.17 97.7145 1406.5 97.9205 1406.77 98.196C1407.06 98.4716 1407.27 98.8182 1407.43 99.2358C1407.59 99.6506 1407.66 100.136 1407.66 100.693V101.192H1402.14V100.067H1405.96C1405.96 99.8054 1405.9 99.5739 1405.79 99.3722C1405.67 99.1705 1405.51 99.0128 1405.31 98.8991C1405.11 98.7827 1404.88 98.7244 1404.62 98.7244C1404.34 98.7244 1404.1 98.7884 1403.88 98.9162C1403.67 99.0412 1403.51 99.2102 1403.39 99.4233C1403.27 99.6335 1403.21 99.8679 1403.21 100.126V101.196C1403.21 101.52 1403.27 101.8 1403.39 102.036C1403.51 102.271 1403.68 102.453 1403.9 102.581C1404.12 102.709 1404.39 102.773 1404.69 102.773C1404.89 102.773 1405.08 102.744 1405.24 102.688C1405.41 102.631 1405.56 102.545 1405.67 102.432C1405.79 102.318 1405.88 102.179 1405.95 102.014L1407.63 102.125C1407.54 102.528 1407.37 102.881 1407.1 103.182C1406.84 103.48 1406.5 103.713 1406.09 103.881C1405.68 104.045 1405.2 104.128 1404.66 104.128ZM1410.66 95.2727V104H1408.85V95.2727H1410.66ZM1412.12 106.455V97.4545H1413.91V98.554H1413.99C1414.07 98.3778 1414.18 98.1989 1414.33 98.017C1414.49 97.8324 1414.69 97.679 1414.93 97.5568C1415.18 97.4318 1415.49 97.3693 1415.85 97.3693C1416.33 97.3693 1416.77 97.4943 1417.17 97.7443C1417.58 97.9915 1417.9 98.3651 1418.14 98.8651C1418.38 99.3622 1418.5 99.9858 1418.5 100.736C1418.5 101.466 1418.38 102.082 1418.15 102.585C1417.92 103.085 1417.6 103.464 1417.19 103.723C1416.79 103.979 1416.34 104.107 1415.85 104.107C1415.5 104.107 1415.2 104.048 1414.95 103.932C1414.7 103.815 1414.5 103.669 1414.35 103.493C1414.19 103.314 1414.07 103.134 1413.99 102.952H1413.93V106.455H1412.12ZM1413.9 100.727C1413.9 101.116 1413.95 101.456 1414.06 101.746C1414.17 102.036 1414.32 102.261 1414.53 102.423C1414.73 102.582 1414.98 102.662 1415.27 102.662C1415.57 102.662 1415.82 102.581 1416.02 102.419C1416.23 102.254 1416.38 102.027 1416.49 101.737C1416.59 101.445 1416.65 101.108 1416.65 100.727C1416.65 100.349 1416.6 100.017 1416.49 99.7301C1416.39 99.4432 1416.23 99.2187 1416.03 99.0568C1415.82 98.8949 1415.57 98.8139 1415.27 98.8139C1414.98 98.8139 1414.73 98.892 1414.52 99.0483C1414.32 99.2045 1414.17 99.4261 1414.06 99.7131C1413.95 100 1413.9 100.338 1413.9 100.727Z" fill="#292253"/>
</g>
<defs>
<filter id="filter0_ddd_1_199" x="-5" y="-2" width="1450" height="62" filterUnits="userSpaceOnUse" color-interpolation-filters="sRGB">
<feFlood flood-opacity="0" result="BackgroundImageFix"/>
<feColorMatrix in="SourceAlpha" type="matrix" values="0 0 0 0 0 0 0 0 0 0 0 0 0 0 0 0 0 0 127 0" result="hardAlpha"/>
<feOffset dy="1"/>
<feGaussianBlur stdDeviation="2.5"/>
<feColorMatrix type="matrix" values="0 0 0 0 0 0 0 0 0 0 0 0 0 0 0 0 0 0 0.12 0"/>
<feBlend mode="normal" in2="BackgroundImageFix" result="effect1_dropShadow_1_199"/>
<feColorMatrix in="SourceAlpha" type="matrix" values="0 0 0 0 0 0 0 0 0 0 0 0 0 0 0 0 0 0 127 0" result="hardAlpha"/>
<feOffset dy="2"/>
<feGaussianBlur stdDeviation="1"/>
<feColorMatrix type="matrix" values="0 0 0 0 0 0 0 0 0 0 0 0 0 0 0 0 0 0 0.14 0"/>
<feBlend mode="normal" in2="effect1_dropShadow_1_199" result="effect2_dropShadow_1_199"/>
<feColorMatrix in="SourceAlpha" type="matrix" values="0 0 0 0 0 0 0 0 0 0 0 0 0 0 0 0 0 0 127 0" result="hardAlpha"/>
<feMorphology radius="2" operator="erode" in="SourceAlpha" result="effect3_dropShadow_1_199"/>
<feOffset dy="3"/>
<feGaussianBlur stdDeviation="0.5"/>
<feColorMatrix type="matrix" values="0 0 0 0 0 0 0 0 0 0 0 0 0 0 0 0 0 0 0.2 0"/>
<feBlend mode="normal" in2="effect2_dropShadow_1_199" result="effect3_dropShadow_1_199"/>
<feBlend mode="normal" in="SourceGraphic" in2="effect3_dropShadow_1_199" result="shape"/>
</filter>
<clipPath id="clip0_1_199">
<rect width="1440" height="136" rx="4" fill="white"/>
</clipPath>
<clipPath id="clip1_1_199">
<rect x="3" y="5" width="1434" height="46" rx="4" fill="white"/>
</clipPath>
</defs>
</svg>
